<?xml version="1.0" standalone="no"?>
<!DOCTYPE svg PUBLIC "-//W3C//DTD SVG 1.1//EN" "http://www.w3.org/Graphics/SVG/1.1/DTD/svg11.dtd" >
<svg xmlns="http://www.w3.org/2000/svg" xmlns:xlink="http://www.w3.org/1999/xlink" version="1.1">
<metadata>
Created by FontForge 20190801 at Tue Jan 27 05:50:18 2009
 By Unknown
1.2, Copyright Copr. Castcraft Software, Inc. 1990-1991.
</metadata>
<defs>
<font id="OPTICuento" horiz-adv-x="164" >
  <font-face 
    font-family="OPTICuento"
    font-weight="500"
    font-stretch="normal"
    units-per-em="1000"
    panose-1="0 0 0 0 0 0 0 0 0 0"
    ascent="800"
    descent="-200"
    x-height="392"
    cap-height="791"
    bbox="-98 -247.529 958 1023.03"
    underline-thickness="58"
    underline-position="-135"
    stemh="20"
    stemv="52"
    unicode-range="U+0020-222B"
  />
<missing-glyph horiz-adv-x="280" 
 />
    <glyph glyph-name=".notdef" horiz-adv-x="280" 
 />
    <glyph glyph-name="space" unicode=" " horiz-adv-x="143" 
d="M0 0z" />
    <glyph glyph-name="exclam" unicode="!" horiz-adv-x="165" 
d="M72 799h72v-564c0 -35 -1 -45 15 -83l-39 -28c-25 44 -26 80 -27 129c-1 45 0 299 0 299v0c-6 199 -15 208 -21 247zM105 62c14 7 23 5 31 2c8 -4 19 -12 22 -27c2 -13 -2 -23 -10 -32c-6 -5 -17 -11 -31 -8c-12 3 -23 11 -27 23c-5 14 -2 32 15 42z" />
    <glyph glyph-name="quotedbl" unicode="&#x22;" horiz-adv-x="268" 
d="M139 476h-20l-18 198c-1 21 -17 104 9 121c12 9 27 9 37 0c24 -17 9 -117 9 -123zM235 476h-22l-17 198c-1 21 -17 104 9 121c13 9 27 9 37 0c24 -17 9 -117 9 -123z" />
    <glyph glyph-name="numbersign" unicode="#" horiz-adv-x="493" 
d="M308 408l-46 -138h102l47 139h35l-44 -139h99l-10 -27h-99l-38 -110h99l-8 -26h-100l-48 -138h-36l47 137h-102l-52 -138h-34l46 137h-98l8 28h99l38 109h-98l8 27h100l47 139h38zM214 133h102l37 109h-101z" />
    <glyph glyph-name="dollar" unicode="$" horiz-adv-x="501" 
d="M265 885h27v0v-66c41 -4 73 -20 112 -13l46 -68l-10 -12c-46 39 -75 61 -148 68v-336l14 -8c139 -70 182 -98 192 -209c6 -56 -7 -137 -74 -193c-41 -35 -83 -46 -132 -51v0v-70h-27v70c-51 2 -93 21 -93 21c-16 3 -27 6 -50 4l-45 95l11 8c69 -65 91 -88 177 -101v366
c-103 55 -158 84 -177 187c-8 47 -2 126 49 181c42 47 92 59 128 62v65zM205 782c-66 -32 -82 -108 -79 -152c4 -76 54 -125 139 -158v323s-25 4 -60 -13zM292 379v-355c57 7 109 28 141 92c20 42 23 117 -4 163c-27 48 -77 75 -137 100z" />
    <glyph glyph-name="percent" unicode="%" horiz-adv-x="684" 
d="M594 576h35l-453 -581h-36zM207 594c46 8 106 0 151 -48c34 -35 43 -86 34 -125v0c-9 -43 -39 -80 -81 -95c-46 -16 -114 -15 -161 19c-44 30 -60 80 -59 118c1 36 22 86 66 112c16 9 35 16 50 19zM136 480c-9 -35 -2 -91 32 -124c32 -29 74 -29 100 -20
c52 18 76 56 84 103c6 38 2 88 -38 121c-29 24 -70 25 -97 14c-47 -18 -70 -48 -81 -94zM490 269c47 9 106 0 152 -47c34 -35 42 -86 34 -125v0c-10 -44 -40 -80 -82 -96c-46 -16 -114 -15 -161 19c-44 31 -60 81 -59 119c1 36 23 86 66 111c16 10 35 16 50 19zM419 156
c-9 -35 -2 -91 32 -124c33 -30 74 -30 100 -20c52 18 76 56 84 103c7 38 2 88 -38 120c-29 25 -70 26 -96 14c-48 -18 -70 -48 -82 -93z" />
    <glyph glyph-name="ampersand" unicode="&#x26;" horiz-adv-x="757" 
d="M356 466l233 -296c39 70 60 154 10 223h127c-54 -45 -65 -98 -83 -153l-11 -32v0c-7 -20 -16 -40 -25 -60c79 -94 99 -106 149 -148h-157c14 39 7 46 -30 91c-96 -95 -216 -114 -304 -96c-73 15 -137 51 -171 134c-26 68 -26 146 24 218c37 54 103 93 155 114
c-67 82 -101 143 -69 221v0c26 63 84 107 153 114c46 5 141 -10 188 -80c27 -40 32 -95 6 -140c-36 -66 -150 -99 -195 -110zM501 582c22 42 22 87 -3 125c-37 61 -96 78 -142 75c-43 -4 -81 -24 -103 -70c-38 -86 18 -141 88 -228c45 13 126 39 160 98zM148 333
c-29 -56 -23 -135 7 -190c41 -78 129 -118 190 -124s146 14 209 91l-264 331c-61 -20 -111 -50 -142 -108z" />
    <glyph glyph-name="quotesingle" unicode="'" horiz-adv-x="140" 
d="M97 625l-16 5l31 87c-22 6 -34 15 -35 36c0 9 7 21 17 29c9 4 19 5 28 1c7 -5 16 -14 17 -28c1 -19 -42 -130 -42 -130z" />
    <glyph glyph-name="parenleft" unicode="(" horiz-adv-x="366" 
d="M362 909l4 -12c-183 -170 -232 -350 -232 -497c1 -173 41 -337 228 -506v-15c-217 134 -290 362 -285 525c5 155 91 402 285 505z" />
    <glyph glyph-name="parenright" unicode=")" horiz-adv-x="368" 
d="M368 404c5 -155 -81 -396 -284 -525v15c136 104 225 314 228 506c2 147 -70 354 -232 497l4 12c219 -170 279 -350 284 -505z" />
    <glyph glyph-name="asterisk" unicode="*" horiz-adv-x="350" 
d="M42 566l121 67l-121 74l11 24l123 -71v134h25v-133l120 61l15 -20l-119 -68l120 -72l-13 -24l-123 71v-131h-25v132l-120 -67z" />
    <glyph glyph-name="plus" unicode="+" horiz-adv-x="484" 
d="M211 400h42v-178h176v-42h-173v-180h-45v179h-174v43h174v178z" />
    <glyph glyph-name="comma" unicode="," horiz-adv-x="138" 
d="M97 -90l-13 7l29 80c-18 3 -35 9 -36 36c-1 10 5 21 13 29c8 5 18 8 29 4c9 -4 17 -13 19 -28c2 -17 -35 -111 -41 -128z" />
    <glyph glyph-name="hyphen" unicode="-" horiz-adv-x="363" 
d="M113 242l-13 -48h157l13 48h-157z" />
    <glyph glyph-name="period" unicode="." horiz-adv-x="142" 
d="M94 57c6 3 24 5 32 -1c8 -5 17 -17 16 -32c-1 -10 -6 -21 -19 -27c-6 -3 -23 -4 -31 2c-21 15 -21 46 2 58z" />
    <glyph glyph-name="slash" unicode="/" horiz-adv-x="648" 
d="M480 796h49l-399 -804h-50z" />
    <glyph glyph-name="zero" unicode="0" horiz-adv-x="486" 
d="M227 393c67 13 152 0 217 -67c48 -50 61 -122 48 -179v0c-14 -62 -56 -114 -117 -136c-64 -24 -161 -22 -230 27c-61 44 -85 115 -82 170c1 52 31 122 93 159c22 14 51 22 71 26zM126 231c-13 -50 -3 -130 46 -177c46 -42 105 -41 143 -29c75 26 108 81 120 148
c9 54 3 126 -54 173c-42 34 -101 36 -139 20c-67 -27 -100 -69 -116 -135z" />
    <glyph glyph-name="one" unicode="1" horiz-adv-x="486" 
d="M231 375h88c-10 -27 -15 -41 -16 -72v-226c0 -43 7 -57 14 -77h-86v0c11 25 17 48 17 76v227c-1 31 -4 41 -17 72z" />
    <glyph glyph-name="two" unicode="2" horiz-adv-x="486" 
d="M178 55h108c61 0 107 -2 157 32l19 -6l-51 -99s-26 18 -119 18h-167l-16 16l102 137c35 50 94 123 75 178c-7 20 -24 39 -44 44c-31 9 -66 -19 -84 -45l-15 9c14 23 40 78 104 82c35 2 76 -23 91 -65c26 -71 -22 -120 -85 -202z" />
    <glyph glyph-name="three" unicode="3" horiz-adv-x="486" 
d="M141 375h28h267l-151 -227c39 -7 81 -14 105 -66c21 -44 9 -92 -16 -138c-17 -32 -68 -98 -106 -142l-22 10s117 169 95 230c-9 27 -29 45 -61 53c-21 6 -34 6 -65 2l154 231h-198c-25 0 -32 -4 -51 -12l-11 18z" />
    <glyph glyph-name="four" unicode="4" horiz-adv-x="486" 
d="M348 393l21 -14v-331h110l-37 -48h-73v-72c0 -59 5 -106 14 -124h-78c10 31 9 49 9 129v67h-228zM166 49h148v233z" />
    <glyph glyph-name="five" unicode="5" horiz-adv-x="486" 
d="M266 375h185l-24 -47h-158l-94 -168c28 -4 36 -5 56 -16c57 -31 78 -73 86 -120c12 -67 -18 -150 -92 -223l-13 16c18 17 43 67 50 103c9 42 6 111 -31 150c-35 37 -70 38 -107 32l-15 10z" />
    <glyph glyph-name="six" unicode="6" horiz-adv-x="486" 
d="M287 787h21l-144 -420c63 46 129 68 197 46c56 -20 92 -60 110 -119c17 -58 4 -138 -39 -195c-49 -64 -126 -103 -185 -101c-41 1 -103 23 -139 77c-50 77 -22 168 8 252zM208 358c-36 -22 -63 -54 -78 -118v0c-10 -62 1 -138 73 -185c19 -13 75 -30 114 -17
c59 19 89 69 102 118c13 47 7 121 -38 171c-38 41 -91 55 -130 48c-11 -2 -31 -9 -43 -17z" />
    <glyph glyph-name="seven" unicode="7" horiz-adv-x="486" 
d="M148 375h265l-213 -578h-22l191 531h-256z" />
    <glyph glyph-name="eight" unicode="8" horiz-adv-x="486" 
d="M323 349c78 -47 148 -92 150 -186c1 -48 -18 -104 -81 -141c-62 -39 -153 -38 -213 -6c-57 31 -87 73 -88 131c-3 84 43 126 134 186c-51 33 -81 56 -84 112c-2 31 13 71 49 101c42 33 95 39 140 27c32 -9 70 -31 85 -72c8 -25 7 -58 -13 -86c-18 -27 -47 -46 -79 -66z
M367 464c2 31 -14 63 -43 81c-26 17 -64 17 -90 3c-34 -19 -45 -50 -45 -76c0 -52 43 -79 93 -106c54 31 83 55 85 98zM145 157c2 -45 28 -94 80 -123c44 -23 94 -27 133 -4c48 27 62 71 63 110c2 49 -18 92 -73 129c-21 14 -47 27 -53 30c-21 11 -35 13 -52 4
c-65 -33 -101 -94 -98 -146z" />
    <glyph glyph-name="nine" unicode="9" horiz-adv-x="486" 
d="M290 -193h-23l106 229c-68 -39 -139 -47 -194 -23c-60 25 -93 87 -104 145c-9 56 6 140 62 196c54 54 137 75 194 65c50 -9 106 -37 135 -98c42 -88 0 -180 -47 -269zM123 216c2 -58 33 -131 91 -164c43 -24 91 -23 134 0c59 33 81 100 84 145c2 53 -18 130 -77 168
c-44 31 -105 31 -144 14c-64 -29 -90 -110 -88 -163z" />
    <glyph glyph-name="colon" unicode=":" horiz-adv-x="143" 
d="M95 199c8 4 21 5 31 -2c8 -4 16 -15 16 -27c0 -10 -3 -20 -14 -28c-6 -5 -17 -7 -28 -4s-19 13 -22 24c-2 11 -1 29 17 37zM95 63c11 5 20 4 32 -3c10 -5 15 -13 16 -25c2 -10 -2 -22 -12 -30c-6 -5 -15 -9 -28 -6c-8 1 -19 9 -23 23c-5 13 0 33 15 41z" />
    <glyph glyph-name="semicolon" unicode=";" horiz-adv-x="143" 
d="M94 196c8 3 17 7 29 0c8 -4 17 -14 19 -26c1 -8 -1 -18 -11 -27c-6 -6 -16 -12 -28 -8c-10 2 -20 10 -25 22c-5 13 0 31 16 39zM102 -97h-17l25 96c-12 2 -18 5 -26 15c-3 4 -9 13 -7 24c1 12 11 25 25 29c8 3 24 2 34 -11c20 -26 -15 -98 -21 -118z" />
    <glyph glyph-name="less" unicode="&#x3c;" horiz-adv-x="370" 
d="M320 300l-236 -97l236 -97v-48l-293 124v42l293 124v-48z" />
    <glyph glyph-name="equal" unicode="=" horiz-adv-x="541" 
d="M32 295h471v-39h-471v39zM34 140h469v-37h-469v37z" />
    <glyph glyph-name="greater" unicode="&#x3e;" horiz-adv-x="370" 
d="M323 182l-293 -124v48l235 97l-235 97v48l293 -124v-42z" />
    <glyph glyph-name="question" unicode="?" horiz-adv-x="492" 
d="M283 150l-45 -27c-30 62 -33 148 0 205c20 33 47 52 78 70c37 22 64 31 84 57c36 46 40 116 22 175c-17 55 -63 124 -127 143c-44 13 -84 7 -135 -33c-38 -30 -60 -58 -84 -87l-5 8l62 122c23 -11 24 -15 59 -1c19 7 37 14 59 17c51 7 145 -19 193 -82
c47 -60 51 -149 27 -211c-15 -37 -35 -66 -81 -97c-43 -29 -74 -41 -102 -81c-33 -49 -35 -117 -5 -178zM238 63c5 3 24 4 31 0c11 -6 19 -16 21 -29c1 -10 -5 -22 -14 -30c-6 -5 -16 -9 -31 -4c-13 4 -21 13 -24 24c-5 13 1 29 17 39z" />
    <glyph glyph-name="at" unicode="@" horiz-adv-x="552" 
d="M320 158c-29 -40 -57 -55 -97 -51c-28 2 -52 15 -66 47c-18 37 -3 106 22 143c29 44 66 67 107 67c20 -2 44 -13 55 -36c3 -5 4 -8 8 -22l13 48h45l-31 -116c-5 -20 -23 -65 -5 -84c9 -9 23 -12 38 -9c34 7 58 34 70 70c17 42 16 118 -16 163c-44 61 -133 77 -182 74
c-72 -4 -143 -35 -191 -121c-31 -60 -38 -154 0 -221c39 -70 118 -97 178 -102c65 -3 126 13 201 60l14 -21c-103 -70 -225 -84 -317 -43c-86 39 -127 100 -137 182c-9 64 10 168 90 231c77 62 198 72 271 46c66 -23 111 -74 124 -137c11 -49 2 -136 -48 -185
c-26 -25 -73 -39 -99 -32s-38 19 -47 49zM234 294c-23 -35 -43 -99 -30 -131c5 -13 18 -22 29 -25c17 -3 36 4 51 18c30 27 52 104 48 135c-3 17 -12 28 -27 36c-13 6 -28 5 -42 -4c-11 -6 -20 -17 -29 -29z" />
    <glyph glyph-name="A" unicode="A" horiz-adv-x="541" 
d="M295 791h54l175 -676c8 -35 26 -87 52 -115v0h-107c29 37 3 108 -6 139l-26 87h-272l-36 -119c-16 -49 -10 -69 2 -107h-84c37 42 41 62 64 135l192 614zM173 250h259l-112 457z" />
    <glyph glyph-name="B" unicode="B" horiz-adv-x="561" 
d="M82 791h129c54 -1 165 3 215 -70c28 -40 30 -86 14 -127c-21 -56 -50 -74 -106 -99c94 -26 170 -79 200 -161c32 -86 39 -155 -23 -236c-71 -95 -168 -97 -260 -98h-169s8 6 8 73v648c0 43 -3 52 -8 70zM145 509c38 0 62 -1 102 4c51 7 112 25 137 82
c16 36 12 81 -13 117c-44 65 -150 62 -226 62v-265zM145 19c126 -1 248 8 315 102c50 71 45 163 0 235c-63 104 -237 128 -315 124v-461z" />
    <glyph glyph-name="C" unicode="C" horiz-adv-x="775" 
d="M700 791l52 -100l-14 -10c-93 97 -215 119 -307 103c-108 -18 -198 -63 -257 -191c-57 -123 -49 -285 22 -408c74 -127 188 -167 297 -178c75 -7 205 21 266 109l16 -8v0c-19 -36 -37 -72 -53 -110c-24 4 -37 10 -65 6l-16 -3c-145 -26 -322 -37 -450 91
c-111 112 -134 281 -97 417c41 147 144 248 289 284c56 14 112 14 158 9c17 -2 36 -5 79 -16c37 -11 42 -13 80 5z" />
    <glyph glyph-name="D" unicode="D" horiz-adv-x="722" 
d="M81 791h186c133 0 316 -36 404 -192c70 -123 81 -288 5 -417c-100 -167 -274 -182 -410 -182h-184s11 15 11 76v648c-1 27 -2 40 -12 67zM225 18c157 0 303 25 389 164c78 127 57 330 -13 418c-87 109 -188 174 -373 174c0 0 -52 -1 -80 0v-756h77z" />
    <glyph glyph-name="E" unicode="E" horiz-adv-x="467" 
d="M431 722l-11 -10c-87 62 -133 61 -225 61h-45v-261h151c82 0 84 1 153 21v-71c-67 27 -78 25 -158 28h-146v-392v-76h25c109 0 176 0 279 72l13 -12l-63 -90c-21 8 -39 8 -71 8h-251s12 20 12 92v629c-1 30 0 41 -11 70h235v0c39 -1 54 4 54 4z" />
    <glyph glyph-name="F" unicode="F" horiz-adv-x="452" 
d="M92 87v634c0 30 0 41 -11 70h235v0c39 -1 54 4 54 4l58 -73l-10 -10c-87 62 -133 61 -225 61h-46v-261h152c67 0 111 5 153 21v-71c-67 27 -78 25 -158 28h-147v-402c0 -61 4 -65 13 -88v0h-79c7 20 11 46 11 87z" />
    <glyph glyph-name="G" unicode="G" horiz-adv-x="789" 
d="M684 791l57 -96l-9 -10c-70 72 -257 130 -376 89c-139 -48 -198 -142 -218 -279c-17 -117 18 -317 171 -424c90 -64 232 -84 315 -39c93 50 85 113 85 199v86c0 41 -3 48 -14 76h94c-22 -39 -23 -48 -24 -96v-107c0 -66 -6 -69 14 -118h-48c-121 -96 -273 -107 -393 -64
c-150 55 -221 150 -253 297c-21 100 -3 288 111 398c130 125 305 106 406 88c32 -5 66 -17 82 0z" />
    <glyph glyph-name="H" unicode="H" horiz-adv-x="626" 
d="M82 791h83c-7 -19 -14 -33 -15 -68v-295h407v264c0 60 -5 66 -15 99h84c-7 -17 -14 -34 -14 -65v-651c0 -53 14 -75 14 -75h-87s18 31 18 70v330h-407v-328c0 -38 11 -64 13 -72h-80c8 30 11 39 11 73v614c0 48 4 67 -12 104z" />
    <glyph glyph-name="I" unicode="I" 
d="M82 791h82v0c-11 -31 -14 -44 -14 -69v-647c0 -33 2 -44 14 -75h-82c15 33 12 43 12 81v640c0 33 -3 35 -12 70z" />
    <glyph glyph-name="J" unicode="J" horiz-adv-x="168" 
d="M97 721c0 33 -4 35 -13 70h82v0c-11 -31 -14 -44 -14 -69v-647c0 -149 -6 -234 -102 -320c0 0 47 72 47 239v727z" />
    <glyph glyph-name="K" unicode="K" horiz-adv-x="515" 
d="M78 791h81c-16 -34 -15 -50 -15 -84v-239l239 213c62 56 75 110 75 110h73l-336 -319l257 -384c33 -51 54 -68 76 -89h-105c0 17 -6 35 -15 49l-264 384v-325c0 -61 3 -70 17 -107h-83c8 13 11 38 11 64v639c0 52 2 54 -11 88z" />
    <glyph glyph-name="L" unicode="L" horiz-adv-x="422" 
d="M83 791h80c-9 -27 -13 -42 -13 -69v-699h278c-47 -15 -72 -56 -72 -56c-43 31 -92 33 -139 33h-134s11 16 11 72v642c0 35 -2 44 -11 77z" />
    <glyph glyph-name="M" unicode="M" horiz-adv-x="810" 
d="M145 75v552l-76 164h66l334 -710l276 710h68v0s-19 -26 -19 -71v-630c0 -42 8 -57 19 -90h-90v0c8 15 16 36 16 70v639l-284 -734l-290 619v-493c0 -48 3 -65 16 -101h-56s20 21 20 75z" />
    <glyph glyph-name="N" unicode="N" horiz-adv-x="721" 
d="M702 717v-742l-522 668v-568c0 -51 5 -53 16 -75h-56s20 21 20 75v594l-93 122h73l542 -696v621c0 54 -20 75 -20 75h58c-12 -22 -18 -22 -18 -74z" />
    <glyph glyph-name="O" unicode="O" horiz-adv-x="905" 
d="M433 802c113 15 273 -18 385 -149c94 -110 104 -263 69 -379c-38 -126 -138 -231 -270 -270c-111 -34 -263 -34 -400 77v0c-100 83 -152 213 -137 344c13 123 74 261 233 340c40 20 76 31 120 37zM296 734c-117 -71 -158 -212 -162 -297c-5 -103 36 -264 171 -362
c104 -75 233 -80 334 -42c118 44 174 133 198 235c27 121 6 275 -104 389c-104 108 -237 135 -333 117c-37 -6 -68 -19 -104 -40z" />
    <glyph glyph-name="P" unicode="P" horiz-adv-x="541" 
d="M82 791h112c102 -1 240 -11 316 -157c46 -90 38 -234 -25 -325c-79 -115 -198 -114 -316 -114h-21v-118c0 -65 14 -77 14 -77h-80c12 32 11 41 11 76v647c-1 30 0 41 -11 68zM148 223c91 -1 125 2 158 10c82 22 136 82 162 161c26 82 21 197 -40 267
c-55 64 -118 98 -280 98v-536z" />
    <glyph glyph-name="Q" unicode="Q" horiz-adv-x="900" 
d="M732 48c81 -5 113 1 158 12l-76 -60h-118c-62 0 -58 -5 -96 -10c-109 -11 -294 -21 -414 102c-104 107 -124 269 -99 381c29 133 113 250 256 304v0c129 51 277 31 391 -52c133 -95 172 -241 166 -354c-5 -108 -52 -214 -168 -323zM348 756c-123 -43 -183 -135 -207 -245
c-24 -109 -2 -297 116 -414c96 -96 249 -109 337 -90c113 25 186 99 226 214c42 125 28 287 -68 407c-96 119 -235 157 -332 145c-21 -2 -41 -6 -72 -17z" />
    <glyph glyph-name="R" unicode="R" horiz-adv-x="547" 
d="M81 791h133c53 0 176 4 234 -79c24 -36 29 -91 14 -130c-22 -57 -68 -79 -118 -91c-30 -7 -95 -10 -123 -10l302 -439c5 -8 46 -42 38 -42h-101c1 30 -3 36 -22 66l-294 414v-409v0c0 -24 7 -48 14 -71h-80c7 22 11 35 11 67v624c0 34 1 67 -8 100zM291 510
c54 4 97 32 114 75c13 34 13 72 -5 106c-36 69 -120 73 -166 73h-90v-256c52 1 88 -2 147 2z" />
    <glyph glyph-name="S" unicode="S" horiz-adv-x="497" 
d="M405 793l48 -72l-9 -11l-3 3c-82 54 -154 93 -228 61c-63 -27 -87 -82 -87 -140c0 -92 47 -133 142 -181l41 -20c114 -55 170 -105 181 -219c5 -58 -16 -146 -85 -195c-79 -56 -149 -32 -237 -16c-14 2 -25 4 -50 -1l-47 97l15 6c68 -75 120 -109 197 -106
c46 2 86 14 126 68v0c31 41 43 93 30 143c-20 87 -103 136 -194 183c-94 49 -153 96 -158 202c-3 51 13 139 83 179c93 53 136 -1 235 19z" />
    <glyph glyph-name="T" unicode="T" horiz-adv-x="539" 
d="M128 792h5c45 -24 71 -25 107 -26h147c50 1 106 9 164 23l8 -6v0c-29 -22 -55 -43 -82 -65c-48 36 -98 31 -150 31v-679c0 -32 1 -42 11 -70v0h-83c11 29 15 37 16 72v677v0c-76 1 -196 2 -220 -28l-6 10z" />
    <glyph glyph-name="U" unicode="U" horiz-adv-x="613" 
d="M162 791c-8 -19 -17 -46 -17 -66v-469c0 -76 -1 -163 88 -216c59 -35 150 -35 208 -1c107 61 101 100 101 176v509c0 30 -5 42 -15 67h85v0c-11 -22 -14 -41 -15 -79v-646c0 -48 3 -50 15 -66v0h-70v93c-23 -46 -84 -76 -138 -95c-68 -23 -161 -18 -229 29
c-88 61 -84 139 -85 211v487c-1 25 -1 40 -13 66h85z" />
    <glyph glyph-name="V" unicode="V" horiz-adv-x="680" 
d="M56 791h98c-6 -35 -2 -52 8 -85l236 -629l224 595c16 45 25 69 8 119h76v0c-16 -25 -32 -51 -42 -79l-285 -736l-274 724v0c-13 32 -30 62 -49 91z" />
    <glyph glyph-name="W" unicode="W" horiz-adv-x="941" 
d="M145 791c0 -35 -2 -37 13 -74l257 -641l73 165l-182 469c-9 26 -25 54 -44 81h100c-4 -32 -4 -47 9 -78l154 -387l137 329c24 61 33 85 22 136h75v0c-19 -26 -37 -56 -49 -86l-170 -418l85 -212l242 585c24 57 29 77 18 131h73l-10 -17c-19 -34 -22 -41 -39 -76
l-303 -720l-102 229l-104 -229l-311 745c-13 31 -18 42 -38 68h94z" />
    <glyph glyph-name="X" unicode="X" horiz-adv-x="600" 
d="M159 791c0 -42 6 -57 38 -107l152 -257l136 224c39 63 52 87 46 140h72v0c-14 -19 -31 -40 -43 -60l-196 -328l211 -338v0c17 -26 31 -42 50 -65h-102c5 21 6 29 -11 57l-181 289l-159 -222c-30 -48 -49 -69 -41 -124h-71v0c16 20 31 41 45 64l211 306l-199 342
c-28 46 -30 47 -58 79h100z" />
    <glyph glyph-name="Y" unicode="Y" horiz-adv-x="669" 
d="M576 650c39 69 51 88 45 141h73v0c-15 -19 -29 -35 -44 -60l-254 -448v-202v0c1 -19 -7 -50 13 -81h-81c9 28 12 41 12 71v215l-224 426c-26 49 -30 47 -58 79h100c0 -42 13 -58 38 -107l191 -361z" />
    <glyph glyph-name="Z" unicode="Z" horiz-adv-x="707" 
d="M230 824c45 -31 97 -33 135 -33h344l-554 -772l528 -1c-31 -13 -53 -19 -92 -53c-37 32 -76 35 -104 35h-428l570 774h-488c57 19 83 44 89 50z" />
    <glyph glyph-name="bracketleft" unicode="[" horiz-adv-x="278" 
d="M296 800v-26h-101v-937h101v-27h-176v990h176z" />
    <glyph glyph-name="backslash" unicode="\" horiz-adv-x="504" 
d="M529 -8h-51l-398 804h48z" />
    <glyph glyph-name="bracketright" unicode="]" horiz-adv-x="278" 
d="M69 800h175v-990h-175v27h101v937h-101v26z" />
    <glyph glyph-name="asciicircum" unicode="^" horiz-adv-x="280" 
d="M161 515h33l86 -93h-32l-74 54l-65 -53h-32z" />
    <glyph glyph-name="underscore" unicode="_" horiz-adv-x="509" 
d="M613 -175h-600v50h600v-50z" />
    <glyph glyph-name="grave" unicode="`" horiz-adv-x="300" 
d="M299 544h-42l-81 56c-22 16 -104 62 -98 94c3 12 13 27 30 31c36 10 83 -55 116 -92z" />
    <glyph glyph-name="a" unicode="a" horiz-adv-x="433" 
d="M435 0h-66v39c-70 -51 -131 -71 -203 -43c-50 19 -89 60 -99 111c-9 41 -1 97 42 141c47 46 112 58 164 49c42 -9 62 -24 96 -53c0 30 4 85 -30 106c-27 17 -84 16 -104 16l63 32c21 3 56 1 76 -8c52 -22 46 -91 46 -135v-173c0 -44 2 -53 15 -82zM339 235
c-41 35 -88 47 -125 39c-40 -9 -68 -34 -85 -73c-18 -39 -13 -91 5 -124c23 -41 60 -66 96 -72c43 -5 91 19 139 68v128c-4 10 -24 30 -30 34z" />
    <glyph glyph-name="b" unicode="b" horiz-adv-x="456" 
d="M125 791c17 -31 16 -53 16 -87v-329c62 40 150 23 191 5c58 -26 105 -77 118 -145c10 -54 7 -154 -60 -213c-67 -58 -163 -39 -244 -22h-70v0c9 20 13 53 14 74v616c0 30 2 44 -14 75zM343 30c64 48 64 140 58 184c-8 55 -30 121 -104 151c-34 14 -87 14 -125 -8
c-26 -13 -31 -24 -31 -41v-291c60 -22 143 -39 202 5z" />
    <glyph glyph-name="c" unicode="c" horiz-adv-x="424" 
d="M421 332l-35 -42c-35 58 -68 89 -125 91c-36 1 -76 -17 -106 -62c-38 -57 -38 -142 -13 -202c23 -53 67 -101 121 -109c39 -6 88 6 124 48c5 7 11 13 24 35l13 -4c-26 -56 -78 -99 -139 -103c-55 -4 -119 11 -161 58c-52 61 -55 144 -40 204c17 67 54 113 121 140
c48 19 124 21 181 -17c11 -7 32 -26 35 -37z" />
    <glyph glyph-name="d" unicode="d" horiz-adv-x="469" 
d="M431 791c23 -34 24 -37 24 -72v-652c0 -22 -2 -50 14 -67h-65v38c-68 -51 -127 -69 -196 -44c-65 21 -107 72 -124 134c-14 51 -4 142 45 202c49 56 116 75 172 69c44 -5 62 -14 103 -43v339c0 24 1 34 -21 64zM337 370c-49 19 -103 10 -146 -29
c-63 -54 -68 -144 -55 -194c15 -60 54 -125 121 -141c49 -11 97 8 147 66v248c-34 34 -51 44 -67 50z" />
    <glyph glyph-name="e" unicode="e" horiz-adv-x="390" 
d="M393 260h-271c-7 -59 -15 -177 67 -233c28 -21 76 -27 111 -9c41 22 55 50 76 89l10 -6c-28 -69 -60 -96 -122 -107c-41 -8 -105 3 -146 46c-54 58 -59 148 -45 207c14 62 50 117 115 142c41 17 99 15 146 -19c37 -26 51 -68 59 -110zM327 318c-8 17 -15 30 -23 37
c-27 31 -63 35 -90 30c-49 -11 -75 -55 -91 -106h212s-3 27 -8 39z" />
    <glyph glyph-name="f" unicode="f" 
d="M243 751l-44 -43c-19 9 -5 14 -11 34c-6 14 -12 20 -25 23c-11 3 -25 -1 -34 -15c-19 -30 1 -60 6 -74l3 -11c9 -36 7 -79 7 -111v-162h84v-12v0l-31 -31s-5 15 -23 22c-16 7 -30 7 -30 7v-518c0 -26 5 -51 11 -75h-68c9 26 6 28 6 76v517h-47v14h47v186
c1 47 -1 67 -10 107c-9 36 4 79 33 98c28 19 60 14 80 6c12 -5 27 -14 46 -38z" />
    <glyph glyph-name="g" unicode="g" horiz-adv-x="441" 
d="M352 380c59 -43 83 -87 77 -145c-4 -42 -26 -89 -78 -115c-28 -14 -58 -19 -93 -20c-11 0 -27 1 -47 4c-11 2 -35 9 -47 8c-13 -2 -29 -11 -36 -25c-3 -7 -3 -17 3 -25c15 -20 64 -14 94 -15h24c21 -1 140 0 179 -63c18 -31 21 -74 7 -105c-21 -49 -68 -72 -117 -82
c-48 -9 -164 -8 -214 40c-21 20 -31 48 -26 76c7 35 23 50 64 83c-31 12 -54 24 -55 55c-2 26 14 44 51 74c-51 51 -66 95 -57 146c7 45 34 83 85 109c54 26 103 23 167 9c34 30 53 43 74 37c11 -3 20 -9 22 -18c2 -4 0 -17 -4 -21c-7 -9 -14 -11 -23 -8c-4 1 -8 3 -14 9
c-5 2 -7 6 -13 6c-9 0 -19 0 -23 -14zM126 278c-5 -35 7 -101 40 -131c37 -31 96 -34 134 -22c45 14 68 41 79 82c10 37 6 98 -28 137c-34 37 -95 43 -123 39c-62 -11 -93 -46 -102 -105zM123 -90c-3 -30 11 -61 43 -83c51 -34 135 -31 187 -4c44 22 63 57 64 89
c1 24 -10 43 -35 58c-25 14 -186 34 -210 19c-33 -21 -47 -53 -49 -79z" />
    <glyph glyph-name="h" unicode="h" horiz-adv-x="419" 
d="M123 791c22 -25 21 -47 21 -87v-367c62 59 136 80 195 48c64 -34 66 -100 65 -164v-144v0c0 -26 5 -52 13 -77h-80c11 30 16 41 16 71v137c0 25 5 109 -38 140c-27 19 -72 18 -105 4c-15 -6 -35 -19 -66 -52v-237c0 -22 1 -34 11 -63h-77c11 30 15 37 15 86v618
c0 22 5 39 -15 60z" />
    <glyph glyph-name="i" unicode="i" horiz-adv-x="148" 
d="M91 604c6 3 16 6 29 -1c7 -4 16 -11 17 -23c1 -11 -4 -23 -13 -30c-5 -4 -14 -8 -27 -4c-9 2 -19 10 -22 21c-4 13 0 29 16 37zM113 403c18 -23 23 -49 23 -68v-35v-219c0 -49 3 -49 14 -81h-84c10 28 19 52 19 80v218c0 31 3 39 -20 75z" />
    <glyph glyph-name="j" unicode="j" horiz-adv-x="157" 
d="M95 602c6 4 23 4 29 0c9 -5 17 -17 17 -28c-1 -9 -5 -20 -18 -27c-6 -3 -17 -5 -29 3c-18 13 -20 39 1 52zM113 403c14 -14 25 -31 26 -42c1 -9 1 -24 1 -57v-327c0 -71 -4 -128 -86 -173l-5 13c29 38 40 80 40 148v344c0 24 0 44 -20 62z" />
    <glyph glyph-name="k" unicode="k" horiz-adv-x="361" 
d="M121 791c24 -42 23 -52 23 -94v-475l57 51c43 38 77 62 83 119h80c-45 -30 -38 -28 -117 -107l-54 -51l117 -183c10 -17 41 -51 41 -51h-93c1 48 -28 83 -53 120l-61 87v-71c0 -60 -2 -94 13 -136v0c-26 -1 -79 0 -79 0c8 22 14 34 15 67v622c0 28 2 45 -16 75z" />
    <glyph glyph-name="l" unicode="l" horiz-adv-x="160" 
d="M118 791c20 -27 24 -40 24 -73v-636c2 -47 2 -50 13 -82h-81c10 23 17 49 17 84v614c0 23 1 49 -18 66z" />
    <glyph glyph-name="m" unicode="m" horiz-adv-x="642" 
d="M382 348c66 53 123 66 183 36c64 -31 61 -99 61 -162v-153c0 -26 5 -45 13 -69h-80v0c10 24 14 46 16 72v137c0 69 2 111 -33 136c-28 19 -71 22 -104 10c-35 -12 -50 -32 -50 -32v-261v0c1 -24 5 -41 13 -62h-81c20 45 17 60 17 111v115c0 56 2 108 -33 129
c-33 20 -65 24 -118 -3c-11 -5 -33 -19 -39 -28v-99v-148v0c0 -26 6 -52 15 -77v0h-82c17 42 17 35 17 102v206c0 25 -4 31 -20 56l49 28s18 -17 20 -43c45 34 115 62 173 45c21 -6 35 -13 63 -46z" />
    <glyph glyph-name="n" unicode="n" horiz-adv-x="411" 
d="M408 0h-79c15 37 16 43 16 104v108c0 54 1 111 -37 141c-25 19 -64 27 -107 5c-26 -13 -59 -42 -59 -42v-222c0 -60 2 -63 12 -94h-79c15 42 16 52 16 104v161c0 31 3 66 -16 100l48 27c16 -22 16 -34 19 -43c66 57 137 60 189 38c66 -29 65 -103 65 -161v-149
c0 -39 3 -50 12 -77z" />
    <glyph glyph-name="o" unicode="o" horiz-adv-x="487" 
d="M244 404c53 6 135 -5 190 -65c44 -48 60 -136 47 -188c-17 -69 -67 -126 -140 -152c-55 -19 -141 -10 -194 31c-63 48 -83 116 -79 179c3 57 25 129 102 173c23 14 55 20 74 22zM115 234c-4 -57 26 -153 94 -200c46 -32 91 -37 138 -17c56 25 84 83 89 129
c7 58 -20 149 -84 201c-42 33 -104 45 -146 29c-67 -25 -87 -86 -91 -142z" />
    <glyph glyph-name="p" unicode="p" horiz-adv-x="458" 
d="M125 392c10 -7 20 -33 23 -46c67 51 148 69 208 40c76 -36 100 -109 102 -172c2 -57 -15 -151 -100 -200c-67 -41 -142 -43 -213 4v-105c0 -55 2 -79 16 -122h-83c12 32 16 48 16 78v421c0 38 -3 43 -17 74zM238 19c37 -8 76 2 109 33c55 53 53 140 44 187
c-8 46 -34 106 -86 128c-39 17 -78 9 -112 -13c-52 -35 -48 -83 -48 -142v-149c40 -41 64 -38 93 -44z" />
    <glyph glyph-name="q" unicode="q" horiz-adv-x="454" 
d="M388 362c-2 8 6 30 6 30v0h54c-11 -31 -9 -39 -9 -74v-435c0 -59 3 -59 14 -92h-81c19 47 16 57 16 110v148c-59 -47 -124 -80 -185 -60c-64 21 -98 71 -116 132c-18 58 -14 155 34 213c38 48 94 68 150 66c34 -1 68 -17 117 -38zM294 380c-42 9 -82 1 -118 -33
c-52 -49 -52 -129 -43 -176c10 -58 32 -118 95 -146c37 -15 85 -9 120 13c31 20 40 43 40 69v225c-40 35 -69 41 -94 48z" />
    <glyph glyph-name="r" unicode="r" horiz-adv-x="252" 
d="M275 373l-41 -36c-24 21 -46 25 -63 18c-11 -4 -24 -18 -24 -44v-254c0 -26 14 -57 14 -57h-86c10 29 22 11 22 76v227c0 24 -6 34 -25 56l51 33l23 -29c35 27 60 42 92 35c8 -5 29 -9 37 -25z" />
    <glyph glyph-name="s" unicode="s" horiz-adv-x="345" 
d="M319 341l-39 -30c-23 42 -42 65 -88 67c-23 1 -46 -9 -61 -33c-11 -18 -12 -44 -3 -63c30 -53 119 -55 168 -97c32 -28 41 -63 36 -95v0c-8 -40 -36 -73 -75 -88c-40 -15 -117 -16 -163 21c-21 17 -27 37 -27 37l44 35c12 -39 25 -71 69 -83c25 -8 54 -4 77 16
c21 18 35 44 31 70c-4 27 -22 40 -60 59c-74 37 -123 34 -142 108c-9 29 -1 65 24 93c31 36 79 45 116 40c19 -2 37 -8 50 -15c6 -3 16 -9 26 -17c6 -4 17 -18 17 -25z" />
    <glyph glyph-name="t" unicode="t" horiz-adv-x="235" 
d="M147 499v-107h106v-17c-37 -16 -55 -28 -55 -28c-17 19 -23 23 -51 28v-216c0 -91 10 -100 21 -107c24 -17 60 -9 83 -3l6 -9l-54 -46c-20 -1 -50 2 -63 11c-42 33 -43 73 -43 130v240h-40z" />
    <glyph glyph-name="u" unicode="u" horiz-adv-x="399" 
d="M121 392c23 -25 25 -55 25 -69v-169c0 -73 -4 -99 26 -121c22 -17 59 -19 91 -10c32 10 49 22 75 49v232c0 25 -3 34 -21 59l51 29c20 -20 21 -46 21 -63v-247c-2 -53 12 -82 12 -82h-63v39c-65 -55 -142 -68 -192 -46c-53 22 -51 61 -51 160v139c0 25 3 47 -21 73z" />
    <glyph glyph-name="v" unicode="v" horiz-adv-x="388" 
d="M50 392h77c-2 -23 -3 -38 10 -69l110 -253l86 181c22 51 36 84 29 141h54v0c-12 -20 -24 -40 -33 -60l-154 -338s-85 217 -153 349c-9 19 -26 49 -26 49z" />
    <glyph glyph-name="w" unicode="w" horiz-adv-x="537" 
d="M50 392h75c0 -25 1 -37 10 -59l118 -265l39 74l-86 202v0c-9 17 -17 32 -27 48v0h76c1 -51 18 -80 38 -127l26 -61l35 78c17 38 27 67 17 110h61v0c-16 -23 -32 -53 -44 -78l-58 -129l53 -115l83 180c27 61 40 85 32 142h58v0c-12 -18 -22 -42 -31 -61l-161 -342l-63 131
l-66 -131l-154 347v0c-10 19 -31 56 -31 56v0z" />
    <glyph glyph-name="x" unicode="x" horiz-adv-x="404" 
d="M161 392c5 -49 29 -75 71 -129l19 -24l60 73c32 37 37 52 37 80h56l-141 -171l112 -158c13 -18 28 -36 53 -63h-90c-3 43 -54 105 -69 126l-40 55l-88 -112c-14 -17 -31 -53 -31 -69h-55l160 198l-106 148c-10 15 -22 32 -40 46v0h92z" />
    <glyph glyph-name="y" unicode="y" horiz-adv-x="407" 
d="M138 392c-7 -42 -2 -54 14 -99l89 -237l81 173c21 42 48 107 28 163h81c0 -5 -17 -35 -20 -40l-265 -547l-6 -14h-46s25 24 44 58c32 56 71 145 71 145s-19 48 -29 76l-99 266v0c-15 37 -27 56 -27 56h84z" />
    <glyph glyph-name="z" unicode="z" horiz-adv-x="409" 
d="M163 418c43 -26 85 -26 125 -26h115l-263 -373h158v0c31 1 61 4 92 9l6 -17v0c-24 -12 -46 -25 -68 -39c-38 30 -98 28 -136 28h-121l257 376h-143c-27 0 -52 -3 -79 -6l-5 14z" />
    <glyph glyph-name="braceleft" unicode="{" horiz-adv-x="507" 
d="M496 794v-28c-125 -22 -156 -49 -156 -177v-78c-2 -52 12 -107 -53 -155c-41 -34 -111 -46 -158 -54c145 -19 205 -46 211 -207v-76c0 -51 -5 -103 59 -146c32 -24 58 -29 97 -33v-28c-63 0 -129 7 -184 63c-50 51 -41 91 -43 152v79c0 49 8 102 -54 140
c-30 21 -65 24 -114 33v45c115 17 168 43 168 173v80c2 67 -7 113 60 170c41 31 111 46 167 47z" />
    <glyph glyph-name="bar" unicode="|" horiz-adv-x="236" 
d="M188 -183h-43v943h43v-943z" />
    <glyph glyph-name="braceright" unicode="}" horiz-adv-x="508" 
d="M103 791c49 0 136 -14 180 -61c51 -53 45 -97 45 -153v-71c0 -45 -8 -107 52 -147c36 -24 78 -30 116 -37v-43c-128 -22 -162 -40 -168 -178v-78c0 -72 4 -132 -85 -183c-46 -27 -80 -30 -140 -31v28c126 15 156 72 156 180v76c1 65 -14 107 56 160c38 30 95 39 153 48
c-136 23 -209 44 -209 205v71c-4 69 10 115 -72 162c-29 17 -61 22 -84 27v25z" />
    <glyph glyph-name="asciitilde" unicode="~" horiz-adv-x="287" 
d="M277 513l10 -3c-1 -32 -4 -64 -36 -79c-31 -17 -47 -4 -92 24c-21 13 -34 18 -46 11c-14 -10 -18 -29 -21 -40h-12c-2 26 -4 58 27 79c15 10 31 11 55 1c29 -12 64 -46 82 -40c19 4 25 22 33 47z" />
    <glyph glyph-name="Adieresis" unicode="&#xc4;" horiz-adv-x="582" 
d="M308 791h54l175 -676c8 -35 25 -75 54 -115v0h-112c23 52 6 108 -3 139l-26 87h-272l-36 -119c-16 -49 -11 -69 2 -107h-85c38 42 42 62 65 135l192 614zM186 250h258l-111 457zM251 900c5 4 16 8 30 0c10 -5 17 -15 17 -27c1 -9 -4 -20 -16 -27c-9 -6 -21 -7 -30 -2
c-21 13 -26 39 -1 56zM408 900c6 4 26 4 31 1c7 -3 17 -12 17 -26c1 -12 -2 -20 -15 -28c-9 -6 -21 -7 -30 -3c-22 12 -26 40 -3 56z" />
    <glyph glyph-name="Aring" unicode="&#xc5;" horiz-adv-x="582" 
d="M308 791h54l175 -676c8 -35 25 -75 54 -115v0h-112c23 52 6 108 -3 139l-26 87h-272l-36 -119c-16 -49 -11 -69 2 -107h-85c38 42 42 62 65 135l192 614zM186 250h258l-111 457zM317 962c15 4 35 4 53 -10s27 -33 24 -55c-1 -17 -9 -36 -30 -49v0c-17 -9 -36 -9 -53 -1
c-19 10 -33 28 -35 48c-5 25 9 55 41 67zM302 899c3 -15 13 -24 22 -28c7 -4 22 -2 28 2c11 8 17 20 16 32s-10 24 -19 29c-11 7 -20 4 -29 0c-14 -8 -19 -24 -18 -35z" />
    <glyph glyph-name="Ccedilla" unicode="&#xc7;" horiz-adv-x="772" 
d="M699 806c15 -33 31 -65 48 -97l-11 -9c-111 106 -231 126 -350 93c-131 -36 -196 -105 -234 -245c-36 -130 -23 -302 100 -431c103 -107 227 -130 333 -106c65 14 106 39 175 112l12 -7l-54 -116c-26 10 -36 13 -63 6l-62 -16c-53 -11 -69 -12 -125 -12l-4 -24
c35 3 65 3 91 -32c18 -27 21 -58 10 -85c-13 -37 -46 -69 -88 -81c-43 -11 -85 4 -109 41l10 14c32 -36 53 -45 88 -38c31 6 63 32 76 69c8 22 7 51 -8 70c-18 22 -43 29 -68 25c-5 -2 -33 -7 -33 -7l5 51c-156 22 -283 105 -336 255c-40 115 -37 331 84 462
c131 142 311 145 427 105c31 -11 54 -9 86 3z" />
    <glyph glyph-name="Eacute" unicode="&#xc9;" horiz-adv-x="467" 
d="M431 722l-11 -10c-87 62 -133 61 -225 61h-45v-261h151c82 0 84 1 153 21v-71c-67 27 -78 25 -158 28h-146v-392v-76h25c109 0 176 0 279 72l13 -12l-63 -90c-21 8 -39 8 -71 8h-251s12 20 12 92v629c-1 30 0 41 -11 70h235v0c39 -1 54 4 54 4zM155 841h-44l71 83
c15 16 84 108 120 96c13 -4 27 -16 29 -33c5 -32 -70 -74 -97 -92z" />
    <glyph glyph-name="Ntilde" unicode="&#xd1;" horiz-adv-x="721" 
d="M705 717v-742l-522 668v-568c0 -51 5 -53 16 -75h-56s20 21 20 75v594l-93 122h73l542 -696v621c0 54 -20 75 -20 75h58c-11 -22 -18 -22 -18 -74zM508 928l11 -3c-2 -32 -5 -64 -36 -80c-32 -17 -48 -3 -93 25c-21 12 -34 18 -45 10c-15 -9 -18 -28 -22 -39h-12
c-1 25 -3 57 27 78c15 11 31 12 55 1c29 -11 64 -45 82 -40c19 4 26 22 33 48z" />
    <glyph glyph-name="Odieresis" unicode="&#xd6;" horiz-adv-x="905" 
d="M433 802c113 15 273 -18 385 -149c94 -110 104 -263 69 -379c-38 -126 -138 -231 -270 -270c-111 -34 -263 -34 -400 77v0c-100 83 -152 213 -137 344c13 123 74 261 233 340c40 20 76 31 120 37zM296 734c-117 -71 -158 -212 -162 -297c-5 -103 36 -264 171 -362
c104 -75 233 -80 334 -42c118 44 174 133 198 235c27 121 6 275 -104 389c-104 108 -237 135 -333 117c-37 -6 -68 -19 -104 -40zM388 900c4 4 16 8 30 0c9 -5 17 -15 17 -27c1 -9 -4 -20 -16 -27c-10 -6 -21 -7 -30 -2c-21 13 -26 39 -1 56zM545 900c5 4 26 4 31 1
c7 -3 17 -12 17 -26c1 -12 -2 -20 -15 -28c-10 -6 -21 -7 -30 -3c-22 12 -26 40 -3 56z" />
    <glyph glyph-name="Udieresis" unicode="&#xdc;" horiz-adv-x="613" 
d="M162 791c-8 -19 -17 -46 -17 -66v-469c0 -76 -1 -163 88 -216c59 -35 150 -35 208 -1c107 61 101 100 101 176v509c0 30 -5 42 -15 67h85v0c-11 -22 -14 -41 -15 -79v-646c0 -48 3 -50 15 -66v0h-70v93c-23 -46 -84 -76 -138 -95c-68 -23 -161 -18 -229 29
c-88 61 -84 139 -85 211v487c-1 25 -1 40 -13 66h85zM245 900c4 4 16 8 30 0c9 -5 17 -15 17 -27c1 -9 -5 -20 -16 -27c-10 -6 -21 -7 -30 -2c-21 13 -26 39 -1 56zM402 900c5 4 25 4 31 1c7 -3 17 -12 17 -26c1 -12 -2 -20 -15 -28c-10 -6 -21 -7 -30 -3
c-22 12 -26 40 -3 56z" />
    <glyph glyph-name="aacute" unicode="&#xe1;" horiz-adv-x="449" 
d="M448 0h-66v39c-70 -51 -132 -71 -203 -43c-51 19 -89 60 -99 111c-9 41 -2 97 42 141c47 46 111 58 163 49c43 -9 63 -24 97 -53c0 30 4 85 -30 106c-28 17 -85 16 -104 16l63 32c21 3 56 1 76 -8c52 -22 46 -91 46 -135v-173c0 -44 2 -53 15 -82zM352 235
c-41 35 -88 47 -125 39c-40 -9 -68 -34 -85 -73c-18 -39 -14 -91 4 -124c24 -41 61 -66 97 -72c42 -5 91 19 139 68v128c-4 10 -25 30 -30 34zM229 436h-43l71 83c14 15 83 108 119 96c13 -4 27 -16 29 -33c5 -32 -70 -74 -96 -92z" />
    <glyph glyph-name="agrave" unicode="&#xe0;" horiz-adv-x="449" 
d="M448 0h-66v39c-70 -51 -132 -71 -203 -43c-51 19 -89 60 -99 111c-9 41 -2 97 42 141c47 46 111 58 163 49c43 -9 63 -24 97 -53c0 30 4 85 -30 106c-28 17 -85 16 -104 16l63 32c21 3 56 1 76 -8c52 -22 46 -91 46 -135v-173c0 -44 2 -53 15 -82zM352 235
c-41 35 -88 47 -125 39c-40 -9 -68 -34 -85 -73c-18 -39 -14 -91 4 -124c24 -41 61 -66 97 -72c42 -5 91 19 139 68v128c-4 10 -25 30 -30 34zM382 436h-43l-80 56c-23 16 -104 62 -98 93c2 13 13 28 30 32c36 10 83 -55 115 -92z" />
    <glyph glyph-name="acircumflex" unicode="&#xe2;" horiz-adv-x="449" 
d="M448 0h-66v39c-70 -51 -132 -71 -203 -43c-51 19 -89 60 -99 111c-9 41 -2 97 42 141c47 46 111 58 163 49c43 -9 63 -24 97 -53c0 30 4 85 -30 106c-28 17 -85 16 -104 16l63 32c21 3 56 1 76 -8c52 -22 46 -91 46 -135v-173c0 -44 2 -53 15 -82zM352 235
c-41 35 -88 47 -125 39c-40 -9 -68 -34 -85 -73c-18 -39 -14 -91 4 -124c24 -41 61 -66 97 -72c42 -5 91 19 139 68v128c-4 10 -25 30 -30 34zM301 529h33l86 -93h-32l-74 54l-65 -53h-32z" />
    <glyph glyph-name="adieresis" unicode="&#xe4;" horiz-adv-x="449" 
d="M448 0h-66v39c-70 -51 -132 -71 -203 -43c-51 19 -89 60 -99 111c-9 41 -2 97 42 141c47 46 111 58 163 49c43 -9 63 -24 97 -53c0 30 4 85 -30 106c-28 17 -85 16 -104 16l63 32c21 3 56 1 76 -8c52 -22 46 -91 46 -135v-173c0 -44 2 -53 15 -82zM352 235
c-41 35 -88 47 -125 39c-40 -9 -68 -34 -85 -73c-18 -39 -14 -91 4 -124c24 -41 61 -66 97 -72c42 -5 91 19 139 68v128c-4 10 -25 30 -30 34zM199 495c5 3 16 8 30 0c10 -5 17 -15 17 -27c1 -9 -4 -20 -16 -27c-9 -6 -21 -7 -30 -2c-21 13 -26 39 -1 56zM356 495
c6 3 26 3 31 1c7 -3 17 -12 17 -26c1 -12 -2 -20 -15 -28c-9 -6 -21 -7 -30 -3c-22 12 -26 40 -3 56z" />
    <glyph glyph-name="atilde" unicode="&#xe3;" horiz-adv-x="449" 
d="M448 0h-66v39c-70 -51 -132 -71 -203 -43c-51 19 -89 60 -99 111c-9 41 -2 97 42 141c47 46 111 58 163 49c43 -9 63 -24 97 -53c0 30 4 85 -30 106c-28 17 -85 16 -104 16l63 32c21 3 56 1 76 -8c52 -22 46 -91 46 -135v-173c0 -44 2 -53 15 -82zM352 235
c-41 35 -88 47 -125 39c-40 -9 -68 -34 -85 -73c-18 -39 -14 -91 4 -124c24 -41 61 -66 97 -72c42 -5 91 19 139 68v128c-4 10 -25 30 -30 34zM375 523l11 -3c-1 -32 -4 -64 -36 -80c-32 -17 -48 -3 -92 24c-22 13 -34 19 -46 11c-15 -9 -18 -29 -21 -39h-13
c-1 25 -3 57 28 78c15 11 30 12 55 1c29 -11 63 -45 82 -40c19 4 25 22 32 48z" />
    <glyph glyph-name="aring" unicode="&#xe5;" horiz-adv-x="449" 
d="M448 0h-66v39c-70 -51 -132 -71 -203 -43c-51 19 -89 60 -99 111c-9 41 -2 97 42 141c47 46 111 58 163 49c43 -9 63 -24 97 -53c0 30 4 85 -30 106c-28 17 -85 16 -104 16l63 32c21 3 56 1 76 -8c52 -22 46 -91 46 -135v-173c0 -44 2 -53 15 -82zM352 235
c-41 35 -88 47 -125 39c-40 -9 -68 -34 -85 -73c-18 -39 -14 -91 4 -124c24 -41 61 -66 97 -72c42 -5 91 19 139 68v128c-4 10 -25 30 -30 34zM278 557c15 4 35 4 53 -10s26 -33 24 -55c-1 -17 -9 -36 -31 -49v0c-16 -9 -36 -9 -53 -1c-19 10 -32 28 -35 48
c-4 25 10 55 42 67zM263 494c3 -15 13 -24 22 -28c7 -4 21 -3 28 2c10 8 17 20 16 31c-1 13 -10 25 -19 30c-11 7 -20 4 -29 0c-14 -8 -19 -24 -18 -35z" />
    <glyph glyph-name="ccedilla" unicode="&#xe7;" horiz-adv-x="425" 
d="M425 332l-35 -38c-35 60 -63 90 -127 92c-34 2 -72 -11 -102 -53c-42 -60 -42 -150 -18 -212c22 -54 65 -99 119 -108c33 -7 85 2 124 44c6 8 12 13 28 37l10 -7c-37 -71 -76 -92 -144 -102l-3 -9c34 -7 62 -15 76 -51c9 -23 5 -52 -12 -75c-22 -28 -45 -38 -79 -38
c-6 0 -18 1 -37 11c-30 15 -33 25 -33 25l17 12c32 -25 52 -35 81 -23c22 9 41 29 44 56c3 19 -3 38 -24 54c-18 14 -35 13 -61 12v25c-67 10 -122 35 -155 110c-26 61 -22 158 23 224c37 57 117 90 167 89c53 -1 103 -18 141 -75z" />
    <glyph glyph-name="eacute" unicode="&#xe9;" horiz-adv-x="404" 
d="M404 260h-271c-8 -59 -15 -186 66 -242c29 -20 77 -26 112 -8c41 22 55 49 76 89l10 -7c-28 -69 -61 -95 -122 -107c-42 -7 -105 3 -147 47c-54 57 -58 156 -44 215c14 62 50 117 114 142c42 17 100 15 147 -19c37 -26 51 -68 59 -110zM337 318c-7 17 -15 30 -22 37
c-28 31 -64 35 -90 30c-49 -11 -75 -55 -91 -106h212s-3 27 -9 39zM181 436h-43l71 83c15 15 84 108 120 96c12 -4 26 -16 28 -33c6 -32 -70 -74 -96 -92z" />
    <glyph glyph-name="egrave" unicode="&#xe8;" horiz-adv-x="404" 
d="M404 260h-271c-8 -59 -15 -186 66 -242c29 -20 77 -26 112 -8c41 22 55 49 76 89l10 -7c-28 -69 -61 -95 -122 -107c-42 -7 -105 3 -147 47c-54 57 -58 156 -44 215c14 62 50 117 114 142c42 17 100 15 147 -19c37 -26 51 -68 59 -110zM337 318c-7 17 -15 30 -22 37
c-28 31 -64 35 -90 30c-49 -11 -75 -55 -91 -106h212s-3 27 -9 39zM327 436h-43l-80 56c-23 16 -104 62 -98 93c2 13 13 28 30 32c36 10 82 -55 115 -92z" />
    <glyph glyph-name="ecircumflex" unicode="&#xea;" horiz-adv-x="404" 
d="M404 260h-271c-8 -59 -15 -186 66 -242c29 -20 77 -26 112 -8c41 22 55 49 76 89l10 -7c-28 -69 -61 -95 -122 -107c-42 -7 -105 3 -147 47c-54 57 -58 156 -44 215c14 62 50 117 114 142c42 17 100 15 147 -19c37 -26 51 -68 59 -110zM337 318c-7 17 -15 30 -22 37
c-28 31 -64 35 -90 30c-49 -11 -75 -55 -91 -106h212s-3 27 -9 39zM244 529h33l86 -93h-32l-74 54l-65 -53h-32z" />
    <glyph glyph-name="edieresis" unicode="&#xeb;" horiz-adv-x="404" 
d="M404 260h-271c-8 -59 -15 -186 66 -242c29 -20 77 -26 112 -8c41 22 55 49 76 89l10 -7c-28 -69 -61 -95 -122 -107c-42 -7 -105 3 -147 47c-54 57 -58 156 -44 215c14 62 50 117 114 142c42 17 100 15 147 -19c37 -26 51 -68 59 -110zM337 318c-7 17 -15 30 -22 37
c-28 31 -64 35 -90 30c-49 -11 -75 -55 -91 -106h212s-3 27 -9 39zM159 495c4 3 16 8 30 0c9 -5 17 -15 17 -27c1 -9 -5 -20 -16 -27c-10 -6 -21 -7 -30 -2c-21 13 -26 39 -1 56zM316 495c5 3 25 3 31 1c7 -3 17 -12 17 -26c1 -12 -2 -20 -15 -28c-10 -6 -21 -7 -30 -3
c-22 12 -26 40 -3 56z" />
    <glyph glyph-name="iacute" unicode="&#xed;" 
d="M126 392c18 -23 22 -48 22 -68v-34v-209c0 -49 4 -49 14 -81h-84c11 28 20 52 20 80v207c0 31 3 40 -21 76zM46 436h-44l71 83c15 15 84 108 120 96c13 -4 27 -16 29 -33c5 -32 -70 -74 -97 -92z" />
    <glyph glyph-name="igrave" unicode="&#xec;" 
d="M126 392c18 -23 22 -48 22 -68v-34v-209c0 -49 4 -49 14 -81h-84c11 28 20 52 20 80v207c0 31 3 40 -21 76zM200 436h-42l-81 56c-22 16 -104 62 -97 93c2 13 13 28 30 32c36 10 82 -55 115 -92z" />
    <glyph glyph-name="icircumflex" unicode="&#xee;" 
d="M126 392c18 -23 22 -48 22 -68v-34v-209c0 -49 4 -49 14 -81h-84c11 28 20 52 20 80v207c0 31 3 40 -21 76zM103 529h33l86 -93h-32l-74 54l-65 -53h-32z" />
    <glyph glyph-name="idieresis" unicode="&#xef;" 
d="M126 392c18 -23 22 -48 22 -68v-34v-209c0 -49 4 -49 14 -81h-84c11 28 20 52 20 80v207c0 31 3 40 -21 76zM23 495c5 3 16 8 30 0c10 -5 17 -15 17 -27c1 -9 -4 -20 -16 -27c-9 -6 -21 -7 -30 -2c-21 13 -26 39 -1 56zM180 495c6 3 26 3 31 1c7 -3 17 -12 17 -26
c1 -12 -2 -20 -15 -28c-9 -6 -21 -7 -30 -3c-22 12 -26 40 -3 56z" />
    <glyph glyph-name="ntilde" unicode="&#xf1;" horiz-adv-x="411" 
d="M411 0h-79c15 37 16 43 16 104v108c0 54 1 111 -37 141c-25 19 -64 27 -106 5c-27 -13 -60 -42 -60 -42v-222c0 -60 2 -63 12 -94h-79c15 42 16 52 16 104v161c0 31 4 66 -16 100l48 27c16 -22 16 -34 19 -43c66 57 137 60 189 38c66 -29 65 -103 65 -161v-149
c0 -39 3 -50 12 -77zM341 523l11 -3c-1 -32 -4 -64 -36 -80c-32 -17 -48 -3 -92 24c-21 13 -34 19 -46 11c-15 -9 -18 -29 -21 -39h-13c-1 25 -3 57 28 78c15 11 31 12 55 1c29 -11 64 -45 82 -40c19 4 25 22 32 48z" />
    <glyph glyph-name="oacute" unicode="&#xf3;" horiz-adv-x="496" 
d="M253 398c53 6 135 -6 190 -65c45 -49 61 -137 48 -189c-17 -69 -68 -125 -140 -151c-55 -20 -141 -10 -194 30c-64 49 -84 117 -80 180c4 57 26 129 102 172c24 14 55 21 74 23zM124 228c-3 -57 27 -154 94 -200c46 -32 92 -38 138 -17c57 25 84 82 89 129
c8 57 -20 148 -83 200c-43 33 -104 46 -147 30c-67 -25 -87 -87 -91 -142zM210 436h-44l72 83c14 15 83 108 119 96c13 -4 27 -16 29 -33c5 -32 -70 -74 -96 -92z" />
    <glyph glyph-name="ograve" unicode="&#xf2;" horiz-adv-x="496" 
d="M253 398c53 6 135 -6 190 -65c45 -49 61 -137 48 -189c-17 -69 -68 -125 -140 -151c-55 -20 -141 -10 -194 30c-64 49 -84 117 -80 180c4 57 26 129 102 172c24 14 55 21 74 23zM124 228c-3 -57 27 -154 94 -200c46 -32 92 -38 138 -17c57 25 84 82 89 129
c8 57 -20 148 -83 200c-43 33 -104 46 -147 30c-67 -25 -87 -87 -91 -142zM378 436h-43l-80 56c-23 16 -104 62 -98 93c2 13 13 28 30 32c36 10 82 -55 115 -92z" />
    <glyph glyph-name="ocircumflex" unicode="&#xf4;" horiz-adv-x="496" 
d="M253 398c53 6 135 -6 190 -65c45 -49 61 -137 48 -189c-17 -69 -68 -125 -140 -151c-55 -20 -141 -10 -194 30c-64 49 -84 117 -80 180c4 57 26 129 102 172c24 14 55 21 74 23zM124 228c-3 -57 27 -154 94 -200c46 -32 92 -38 138 -17c57 25 84 82 89 129
c8 57 -20 148 -83 200c-43 33 -104 46 -147 30c-67 -25 -87 -87 -91 -142zM266 529h33l86 -93h-32l-74 54l-65 -53h-32z" />
    <glyph glyph-name="odieresis" unicode="&#xf6;" horiz-adv-x="496" 
d="M253 398c53 6 135 -6 190 -65c45 -49 61 -137 48 -189c-17 -69 -68 -125 -140 -151c-55 -20 -141 -10 -194 30c-64 49 -84 117 -80 180c4 57 26 129 102 172c24 14 55 21 74 23zM124 228c-3 -57 27 -154 94 -200c46 -32 92 -38 138 -17c57 25 84 82 89 129
c8 57 -20 148 -83 200c-43 33 -104 46 -147 30c-67 -25 -87 -87 -91 -142zM193 495c4 3 16 8 30 0c9 -5 17 -15 17 -27c1 -9 -5 -20 -16 -27c-10 -6 -21 -7 -30 -2c-21 13 -26 39 -1 56zM350 495c5 3 25 3 31 1c7 -3 17 -12 17 -26c1 -12 -2 -20 -15 -28
c-10 -6 -21 -7 -30 -3c-22 12 -26 40 -3 56z" />
    <glyph glyph-name="otilde" unicode="&#xf5;" horiz-adv-x="496" 
d="M253 398c53 6 135 -6 190 -65c45 -49 61 -137 48 -189c-17 -69 -68 -125 -140 -151c-55 -20 -141 -10 -194 30c-64 49 -84 117 -80 180c4 57 26 129 102 172c24 14 55 21 74 23zM124 228c-3 -57 27 -154 94 -200c46 -32 92 -38 138 -17c57 25 84 82 89 129
c8 57 -20 148 -83 200c-43 33 -104 46 -147 30c-67 -25 -87 -87 -91 -142zM372 523l11 -3c-1 -32 -4 -64 -36 -80c-32 -17 -48 -3 -92 24c-22 13 -34 19 -46 11c-15 -9 -18 -29 -21 -39h-13c-1 25 -3 57 28 78c14 11 30 12 55 1c28 -11 63 -45 81 -40c19 4 26 22 33 48z" />
    <glyph glyph-name="uacute" unicode="&#xfa;" horiz-adv-x="405" 
d="M124 392c23 -25 26 -55 26 -69v-169c0 -73 -5 -99 25 -121c22 -17 59 -19 91 -10c32 10 49 22 75 49v232c0 25 -3 34 -21 59l51 29c20 -20 21 -46 21 -63v-247c-2 -53 12 -82 12 -82h-63v39c-65 -55 -142 -68 -191 -46c-53 22 -51 61 -51 160v139c0 25 2 47 -22 73z
M178 436h-43l71 83c15 15 84 108 120 96c12 -4 26 -16 28 -33c5 -32 -70 -74 -96 -92z" />
    <glyph glyph-name="ugrave" unicode="&#xf9;" horiz-adv-x="405" 
d="M124 392c23 -25 26 -55 26 -69v-169c0 -73 -5 -99 25 -121c22 -17 59 -19 91 -10c32 10 49 22 75 49v232c0 25 -3 34 -21 59l51 29c20 -20 21 -46 21 -63v-247c-2 -53 12 -82 12 -82h-63v39c-65 -55 -142 -68 -191 -46c-53 22 -51 61 -51 160v139c0 25 2 47 -22 73z
M326 436h-43l-80 56c-23 16 -104 62 -98 93c2 13 13 28 30 32c36 10 82 -55 115 -92z" />
    <glyph glyph-name="ucircumflex" unicode="&#xfb;" horiz-adv-x="405" 
d="M124 392c23 -25 26 -55 26 -69v-169c0 -73 -5 -99 25 -121c22 -17 59 -19 91 -10c32 10 49 22 75 49v232c0 25 -3 34 -21 59l51 29c20 -20 21 -46 21 -63v-247c-2 -53 12 -82 12 -82h-63v39c-65 -55 -142 -68 -191 -46c-53 22 -51 61 -51 160v139c0 25 2 47 -22 73z
M222 529h33l85 -93h-31l-75 54l-64 -53h-32z" />
    <glyph glyph-name="udieresis" unicode="&#xfc;" horiz-adv-x="405" 
d="M124 392c23 -25 26 -55 26 -69v-169c0 -73 -5 -99 25 -121c22 -17 59 -19 91 -10c32 10 49 22 75 49v232c0 25 -3 34 -21 59l51 29c20 -20 21 -46 21 -63v-247c-2 -53 12 -82 12 -82h-63v39c-65 -55 -142 -68 -191 -46c-53 22 -51 61 -51 160v139c0 25 2 47 -22 73z
M151 495c4 3 15 8 29 0c10 -5 17 -15 17 -27c1 -9 -4 -20 -16 -27c-9 -6 -21 -7 -29 -2c-22 13 -27 39 -1 56zM308 495c5 3 25 3 30 1c8 -3 17 -12 17 -26c1 -12 -2 -20 -15 -28c-9 -6 -21 -7 -29 -3c-23 12 -27 40 -3 56z" />
    <glyph glyph-name="dagger" unicode="&#x2020;" horiz-adv-x="487" 
d="M130 790c30 -21 41 -24 76 -24h110c69 -1 110 6 179 27l13 -14c-29 -22 -31 -20 -79 -65c-59 43 -82 36 -151 36v-593c0 -29 -8 -98 40 -122c36 -17 71 -2 119 33l12 -12c-67 -69 -106 -80 -155 -67c-68 19 -72 87 -72 156v604c-72 3 -119 -11 -173 -41l-8 10z" />
    <glyph glyph-name="cent" unicode="&#xa2;" horiz-adv-x="420" 
d="M273 479v-61v0c40 -2 98 -9 147 -68l-34 -36c-33 56 -57 80 -113 87v-376c36 -3 100 25 138 80l8 -7c-47 -73 -88 -94 -146 -101v-70h-21v70c-55 8 -91 23 -134 76c-47 57 -46 158 -30 206c31 95 91 130 164 139v61h21zM229 398c-4 -1 -20 -8 -23 -9
c-73 -37 -86 -116 -89 -165c-5 -66 26 -166 135 -195v372s-18 -2 -23 -3z" />
    <glyph glyph-name="sterling" unicode="&#xa3;" horiz-adv-x="564" 
d="M491 789l51 -126l-12 -7c-57 85 -98 130 -179 132c-38 1 -92 -22 -130 -72c-60 -80 -36 -147 -8 -237l11 -28h196l-14 -44h-172c29 -117 53 -212 -49 -343h206c62 0 102 -1 164 51l8 -4l-46 -111h-406l-18 32c118 87 119 167 105 269c-1 1 -8 49 -27 108h-93l15 43h67
c-34 91 -55 182 0 268c39 63 98 85 154 90c27 2 51 1 88 -9c54 -16 41 -23 89 -12z" />
    <glyph glyph-name="bullet" unicode="&#x2022;" horiz-adv-x="142" 
d="M94 196c8 3 17 7 29 0c8 -4 17 -14 19 -26c1 -8 -1 -18 -11 -27c-6 -6 -16 -12 -28 -8c-10 2 -21 10 -25 22c-3 13 0 31 16 39z" />
    <glyph glyph-name="germandbls" unicode="&#xdf;" horiz-adv-x="413" 
d="M370 739l-37 -42c-19 27 -38 55 -76 58c-19 2 -41 -4 -60 -23c-44 -42 -42 -145 -42 -185v-158h76c13 0 126 5 158 -44c14 -23 15 -53 4 -76s-28 -35 -59 -52c45 -26 70 -45 76 -97c5 -27 3 -61 -26 -86c-41 -38 -100 -37 -154 -37h-75v-68c0 -65 -2 -86 9 -123h-71
c12 31 14 44 14 84v474h-45l-9 25h54v159c2 67 -6 160 85 212c50 30 114 27 178 -21zM155 226h34c40 0 116 -5 147 39c13 18 11 46 1 63c-24 43 -110 36 -140 36h-42v-138zM155 25h42c32 0 121 -6 154 43c17 24 14 56 0 80c-39 67 -113 50 -153 52h-43v-175z" />
    <glyph glyph-name="acute" unicode="&#xb4;" horiz-adv-x="297" 
d="M121 546h-44l71 83c15 16 84 108 120 96c13 -4 27 -16 29 -33c5 -31 -70 -74 -97 -92z" />
    <glyph glyph-name="dieresis" unicode="&#xa8;" horiz-adv-x="297" 
d="M92 480c5 4 16 8 30 0c9 -5 17 -14 17 -27c1 -9 -4 -20 -16 -27c-10 -6 -21 -7 -30 -2c-21 13 -26 39 -1 56zM249 480c6 4 26 4 31 1c7 -3 17 -12 17 -26c1 -12 -2 -20 -15 -28c-9 -6 -21 -7 -30 -3c-22 12 -26 40 -3 56z" />
    <glyph glyph-name="AE" unicode="&#xc6;" horiz-adv-x="807" 
d="M716 796l58 -73l-10 -9c-56 71 -185 60 -245 62h-25v-260h159c82 0 83 3 146 21v-68c-76 24 -82 22 -160 25h-145v-479h35c96 0 163 -2 271 72l13 -10v0c-22 -28 -43 -59 -62 -91v0c-33 6 -66 13 -100 14h-225c14 42 12 69 12 126v47v0h-256l-7 -15
c-32 -67 -59 -112 -49 -158v0h-75v0c23 22 42 51 57 78l312 641c17 35 17 38 5 72h213v0c26 1 51 3 78 5zM192 193h246v517z" />
    <glyph glyph-name="Oslash" unicode="&#xd8;" horiz-adv-x="900" 
d="M787 685l58 58l17 -17l-59 -59c115 -147 117 -305 68 -433c-58 -145 -169 -222 -315 -247c-108 -17 -232 -4 -357 98l-52 -52l-18 18l53 53c-105 123 -122 263 -89 387c36 135 116 236 255 287c106 39 278 24 385 -53v0c19 -12 37 -26 54 -40zM474 774
c-104 9 -232 -45 -298 -165c-72 -133 -37 -364 51 -465l513 495c-81 93 -190 130 -266 135zM244 125c92 -91 231 -128 327 -112c111 18 200 74 249 197c44 108 37 277 -64 410z" />
    <glyph glyph-name="infinity" unicode="&#x221e;" horiz-adv-x="407" 
d="M135 392c-7 -42 -2 -54 13 -99l90 -237l81 173c20 42 48 107 28 163h80c0 -5 -17 -35 -19 -40l-265 -547l-6 -14h-46s25 24 44 58c31 56 71 145 71 145s-19 48 -29 76l-100 266v0c-14 37 -26 56 -26 56h84zM174 436h-44l71 83c15 15 84 108 120 96c13 -4 27 -16 29 -33
c5 -32 -70 -74 -97 -92z" />
    <glyph glyph-name="yen" unicode="&#xa5;" horiz-adv-x="685" 
d="M165 791c-12 -39 -8 -61 9 -106l239 -590l203 560c16 45 29 86 2 136h91c-24 -30 -46 -69 -57 -101l-232 -637v-178v0c0 -21 2 -43 12 -64v0h-84c6 16 17 43 17 73v167l-253 645v0c-28 70 -57 95 -57 95h110z" />
    <glyph glyph-name="product" unicode="&#x220f;" horiz-adv-x="266" 
d="M274 804h11c9 -27 11 -35 39 -70l-7 -9c-40 40 -78 63 -125 53c-45 -9 -44 -58 -44 -110v-705c0 -39 3 -119 -53 -150c-15 -9 -41 -14 -64 -9c-14 3 -18 4 -31 7c-12 3 -32 2 -32 2l-36 65l9 6c35 -38 82 -54 108 -48c51 10 43 71 43 107v706c0 41 6 106 52 139
c45 32 108 -8 130 16z" />
    <glyph glyph-name="pi" unicode="&#x3c0;" horiz-adv-x="723" 
d="M81 791h234c139 0 252 -13 350 -181c68 -118 82 -281 11 -404c-94 -164 -290 -193 -423 -193h-106v-107c0 -70 4 -105 12 -132h-79s12 30 12 81v874c0 28 -6 43 -11 62zM147 40c62 1 301 -13 419 111c114 118 117 288 65 408c-81 185 -181 214 -353 214h-131v-733z" />
    <glyph glyph-name="integral" unicode="&#x222b;" horiz-adv-x="564" 
d="M196 789h70v0c2 -10 5 -19 9 -29l281 -703c17 -41 38 -57 38 -57h-103c14 55 -10 100 -31 143l-15 30h-281c-14 -30 -26 -56 -39 -86c-14 -33 -17 -48 8 -87h-84c16 19 26 30 40 62l210 481l-75 192c-8 21 -28 54 -28 54zM172 193h265l-126 323z" />
    <glyph glyph-name="ae" unicode="&#xe6;" horiz-adv-x="718" 
d="M435 326c59 67 126 88 186 64c61 -23 87 -63 97 -128l-267 -3c-12 -59 -13 -181 62 -237c36 -26 82 -29 117 -12c35 19 50 41 73 85l11 -4c-23 -60 -52 -92 -111 -104c-46 -10 -112 -3 -155 41c-15 13 -22 24 -34 47c-73 -72 -141 -104 -209 -88c-50 11 -98 41 -118 102
c-16 47 -7 105 24 149c41 55 109 71 159 64c47 -5 71 -20 112 -57c0 24 8 89 -26 109c-28 17 -71 16 -108 16c58 34 109 34 140 23c17 -6 38 -36 47 -67zM630 354c-28 30 -62 35 -88 29c-51 -11 -74 -52 -91 -105l201 -2l8 5c-7 37 -12 54 -30 73zM382 118v64
c-1 29 -6 38 -38 65c-36 29 -84 39 -120 30c-39 -11 -66 -37 -82 -76c-18 -43 -15 -89 5 -125c25 -43 62 -66 101 -72c43 -5 91 29 134 72v42z" />
    <glyph glyph-name="oslash" unicode="&#xf8;" horiz-adv-x="497" 
d="M448 419l19 -14l-36 -49c62 -65 76 -136 62 -197c-15 -70 -51 -122 -126 -154c-58 -24 -125 -22 -195 13l-37 -47l-17 17l33 44c-70 73 -84 145 -70 209c14 62 50 120 124 145c63 22 129 22 205 -16zM270 376c-45 3 -100 -14 -129 -68c-35 -66 -17 -164 42 -236l195 256
c-49 40 -74 46 -108 48zM200 53c46 -34 93 -48 132 -40c49 10 89 44 107 92c23 60 10 136 -43 206z" />
    <glyph glyph-name="Delta" unicode="&#x394;" horiz-adv-x="166" 
d="M157 791c-6 -21 -11 -47 -12 -70v0v-710c0 -112 -19 -173 -82 -199c-44 -18 -108 -15 -161 26l55 40c19 -16 29 -24 42 -29c18 -5 38 0 53 12c37 29 37 76 37 114v737c0 29 -5 47 -16 79h84z" />
    <glyph glyph-name="guillemotleft" unicode="&#xab;" horiz-adv-x="287" 
d="M179 343v-29l-51 -110l48 -115v-33l-99 125v39zM286 343v-29l-51 -110l48 -115v-33l-98 125v39z" />
    <glyph glyph-name="guillemotright" unicode="&#xbb;" horiz-adv-x="286" 
d="M285 220v-39l-98 -125v33l47 115l-51 110v29zM178 220v-39l-98 -125v33l47 115l-51 110v29z" />
    <glyph glyph-name="Agrave" unicode="&#xc0;" horiz-adv-x="582" 
d="M312 791h54l175 -676c8 -35 25 -75 54 -115v0h-111c22 52 5 108 -4 139l-26 87h-272l-36 -119c-16 -49 -10 -69 2 -107h-84c37 42 41 62 64 135l192 614zM190 250h259l-112 457zM446 841h-42l-81 56c-22 16 -103 62 -97 93c2 13 13 28 30 32c36 10 82 -55 115 -92z" />
    <glyph glyph-name="Atilde" unicode="&#xc3;" horiz-adv-x="582" 
d="M312 791h54l175 -676c8 -35 25 -75 54 -115v0h-111c22 52 5 108 -4 139l-26 87h-272l-36 -119c-16 -49 -10 -69 2 -107h-84c37 42 41 62 64 135l192 614zM190 250h259l-112 457zM438 928l11 -3c-1 -32 -5 -64 -36 -80c-32 -17 -48 -3 -93 25c-21 12 -34 18 -45 10
c-15 -9 -18 -28 -22 -39h-12c-1 25 -3 57 27 78c15 11 31 12 55 1c29 -11 64 -45 82 -40c19 4 26 22 33 48z" />
    <glyph glyph-name="Otilde" unicode="&#xd5;" horiz-adv-x="905" 
d="M433 802c113 15 273 -18 385 -149c94 -110 104 -263 69 -379c-38 -126 -138 -231 -270 -270c-111 -34 -263 -34 -400 77v0c-100 83 -152 213 -137 344c13 123 74 261 233 340c40 20 76 31 120 37zM296 734c-117 -71 -158 -212 -162 -297c-5 -103 36 -264 171 -362
c104 -75 233 -80 334 -42c118 44 174 133 198 235c27 121 6 275 -104 389c-104 108 -237 135 -333 117c-37 -6 -68 -19 -104 -40zM563 928l11 -3c-1 -32 -5 -64 -36 -80c-32 -17 -48 -3 -93 25c-21 12 -34 18 -45 10c-15 -9 -18 -28 -21 -39h-13c-1 25 -3 57 27 78
c15 11 31 12 56 1c28 -11 63 -45 81 -40c19 4 26 22 33 48z" />
    <glyph glyph-name="OE" unicode="&#x152;" horiz-adv-x="928" 
d="M835 792l57 -76l-11 -8c-72 60 -142 60 -216 60h-54v0v-256h140c72 0 96 0 164 20v-73c-54 26 -139 30 -167 30h-137v-466h80c179 -1 157 9 225 67l12 -9v0c-23 -29 -45 -60 -65 -91v0c-32 5 -63 10 -96 10h-185c-163 -19 -285 0 -392 104c-101 97 -125 250 -107 351
c21 125 83 255 239 320c115 48 206 13 370 12h68v0c25 1 50 2 75 5zM557 712c0 33 -13 59 -13 59c-24 18 -128 17 -182 0c-102 -32 -177 -114 -211 -216c-39 -113 -14 -288 59 -390c91 -127 227 -146 338 -147c0 0 9 28 9 53v641z" />
    <glyph glyph-name="oe" unicode="&#x153;" horiz-adv-x="774" 
d="M472 309c38 58 74 83 132 90c38 4 90 -8 122 -36c38 -35 42 -67 45 -103l-269 1c-6 -57 -15 -188 71 -242c34 -21 77 -23 115 -1c37 21 50 46 68 80l13 -6c-30 -65 -60 -95 -120 -107c-40 -7 -108 2 -148 43c-14 12 -22 25 -37 49c-58 -71 -127 -99 -198 -93
c-56 5 -122 30 -162 100c-34 59 -35 142 -10 197c34 73 82 102 154 115c62 11 153 3 224 -87zM170 336c-48 -48 -48 -116 -41 -162c12 -56 49 -127 119 -158c44 -19 89 -17 130 8c50 32 73 95 75 136c2 72 -31 136 -89 178v0c-43 32 -104 45 -144 31c-19 -6 -35 -18 -50 -33
zM665 369c-22 15 -56 18 -81 10c-45 -15 -64 -48 -80 -92l205 -6c-4 32 -6 62 -44 88z" />
    <glyph glyph-name="quotedblleft" unicode="&#x201c;" horiz-adv-x="245" 
d="M121 791l10 -5l-24 -88c16 -10 34 -21 34 -39c0 -10 -6 -22 -18 -28c-7 -4 -19 -6 -30 0c-9 5 -17 17 -16 31c0 27 32 104 44 129zM214 791l11 -5l-25 -88c16 -10 34 -21 34 -39c0 -10 -6 -22 -18 -28c-7 -4 -19 -6 -29 0c-10 5 -17 17 -16 31c0 27 32 104 43 129z" />
    <glyph glyph-name="quotedblright" unicode="&#x201d;" horiz-adv-x="245" 
d="M199 628l-10 5l24 88c-16 10 -34 21 -34 39c0 10 7 22 18 28c8 4 19 6 30 0c9 -5 17 -17 16 -31c0 -27 -32 -104 -44 -129zM106 628l-11 5l25 88c-16 10 -34 21 -34 39c0 10 6 22 18 28c7 4 19 6 30 0c9 -5 17 -17 16 -31c0 -27 -32 -104 -44 -129z" />
    <glyph glyph-name="quoteleft" unicode="&#x2018;" horiz-adv-x="141" 
d="M121 791l10 -5l-24 -88c16 -10 34 -21 34 -39c0 -10 -6 -22 -18 -28c-7 -4 -19 -6 -30 0c-9 5 -17 17 -16 31c0 27 32 104 44 129z" />
    <glyph glyph-name="quoteright" unicode="&#x2019;" horiz-adv-x="141" 
d="M97 628l-11 5l24 88c-16 10 -34 21 -34 39c0 10 7 22 18 28c8 4 19 6 30 0c10 -5 17 -17 16 -31c0 -27 -32 -104 -43 -129z" />
    <glyph glyph-name="ydieresis" unicode="&#xff;" horiz-adv-x="407" 
d="M131 392c-6 -42 -2 -54 14 -99l89 -237l82 173c20 42 48 107 28 163h80c0 -5 -17 -35 -19 -40l-265 -547l-6 -14h-46s24 24 43 58c32 56 72 145 72 145s-20 48 -29 76l-100 266v0c-15 37 -26 56 -26 56h83zM153 495c4 3 16 8 29 0c10 -5 17 -15 17 -27
c1 -9 -4 -20 -16 -27c-9 -6 -21 -7 -29 -2c-21 13 -27 39 -1 56zM310 495c5 3 25 3 30 1c8 -3 17 -12 17 -26c1 -12 -2 -20 -14 -28c-10 -6 -22 -7 -30 -3c-22 12 -27 40 -3 56z" />
    <glyph glyph-name="Ydieresis" unicode="&#x178;" horiz-adv-x="669" 
d="M568 650c40 69 51 88 46 141h72v0c-15 -19 -29 -35 -43 -60l-255 -448v-202v0c1 -19 -6 -50 14 -81h-82c10 28 13 41 13 71v215l-225 426c-25 49 -30 47 -57 79h100c0 -42 12 -58 38 -107l191 -361zM343 841h-44l71 83c15 16 84 108 120 96c13 -4 26 -16 29 -33
c5 -32 -70 -74 -97 -92z" />
    <glyph glyph-name="fraction" unicode="&#x2044;" horiz-adv-x="669" 
d="M573 650c39 69 51 88 45 141h72v0c-14 -19 -28 -35 -43 -60l-255 -448v-202v0c1 -19 -6 -50 14 -81h-82c10 28 13 41 13 71v215l-225 426c-25 49 -29 47 -57 79h100c0 -42 13 -58 38 -107l191 -361zM294 900c4 4 16 8 29 0c10 -5 17 -15 17 -27c1 -9 -4 -20 -16 -27
c-9 -6 -21 -7 -29 -2c-21 13 -27 39 -1 56zM451 900c5 4 25 4 30 1c8 -3 17 -12 17 -26c1 -12 -2 -20 -14 -28c-10 -6 -22 -7 -30 -3c-22 12 -27 40 -3 56z" />
    <glyph glyph-name="periodcentered" unicode="&#xb7;" horiz-adv-x="445" 
d="M225 2l-4 -26c35 2 64 2 90 -33c18 -27 21 -58 10 -85c-12 -37 -46 -69 -88 -81c-43 -10 -85 5 -109 42l10 13c32 -36 53 -45 88 -38c31 7 63 32 76 69c8 22 7 51 -7 70c-18 22 -44 29 -69 26c-5 -2 -33 -8 -33 -8l7 51h29z" />
    <glyph glyph-name="Acircumflex" unicode="&#xc2;" horiz-adv-x="582" 
d="M312 791h54l175 -676c8 -35 25 -75 54 -115v0h-111c22 52 5 108 -4 139l-26 87h-272l-36 -119c-16 -49 -10 -69 2 -107h-84c37 42 41 62 64 135l192 614zM190 250h259l-112 457zM332 934h33l86 -93h-32l-74 54l-65 -53h-32z" />
    <glyph glyph-name="Ecircumflex" unicode="&#xca;" horiz-adv-x="467" 
d="M431 722l-11 -10c-87 62 -133 61 -225 61h-45v-261h151c82 0 84 1 153 21v-71c-67 27 -78 25 -158 28h-146v-392v-76h25c109 0 176 0 279 72l13 -12l-63 -90c-21 8 -39 8 -71 8h-251s12 20 12 92v629c-1 30 0 41 -11 70h235v0c39 -1 54 4 54 4zM214 934h33l86 -93h-32
l-74 54l-65 -53h-32z" />
    <glyph glyph-name="Aacute" unicode="&#xc1;" horiz-adv-x="582" 
d="M308 791h54l175 -676c8 -35 25 -75 54 -115v0h-112c23 52 6 108 -3 139l-26 87h-272l-36 -119c-16 -49 -11 -69 2 -107h-85c38 42 42 62 65 135l192 614zM186 250h258l-111 457zM271 841h-43l71 83c15 16 84 108 120 96c13 -4 26 -16 29 -33c5 -32 -70 -74 -97 -92z" />
    <glyph glyph-name="Edieresis" unicode="&#xcb;" horiz-adv-x="467" 
d="M431 722l-11 -10c-87 62 -133 61 -225 61h-45v-261h151c82 0 84 1 153 21v-71c-67 27 -78 25 -158 28h-146v-392v-76h25c109 0 176 0 279 72l13 -12l-63 -90c-21 8 -39 8 -71 8h-251s12 20 12 92v629c-1 30 0 41 -11 70h235v0c39 -1 54 4 54 4zM137 900c4 4 16 8 29 0
c10 -5 17 -15 17 -27c2 -9 -4 -20 -15 -27c-10 -6 -22 -7 -30 -2c-21 13 -27 39 -1 56zM294 900c5 4 25 4 30 1c8 -3 17 -12 17 -26c2 -12 -2 -20 -14 -28c-10 -6 -22 -7 -30 -3c-22 12 -27 40 -3 56z" />
    <glyph glyph-name="Egrave" unicode="&#xc8;" horiz-adv-x="467" 
d="M431 722l-11 -10c-87 62 -133 61 -225 61h-45v-261h151c82 0 84 1 153 21v-71c-67 27 -78 25 -158 28h-146v-392v-76h25c109 0 176 0 279 72l13 -12l-63 -90c-21 8 -39 8 -71 8h-251s12 20 12 92v629c-1 30 0 41 -11 70h235v0c39 -1 54 4 54 4zM353 841h-42l-81 56
c-22 16 -104 62 -97 93c2 13 12 28 29 32c36 10 83 -55 116 -92z" />
    <glyph glyph-name="Iacute" unicode="&#xcd;" 
d="M82 791h82v0c-11 -31 -14 -44 -14 -69v-647c0 -33 2 -44 14 -75h-82c15 33 12 43 12 81v640c0 33 -3 35 -12 70zM64 841h-44l71 83c15 16 84 108 120 96c13 -4 27 -16 29 -33c5 -32 -70 -74 -97 -92z" />
    <glyph glyph-name="Icircumflex" unicode="&#xce;" 
d="M82 791h82v0c-11 -31 -14 -44 -14 -69v-647c0 -33 2 -44 14 -75h-82c15 33 12 43 12 81v640c0 33 -3 35 -12 70zM107 934h33l86 -93h-32l-74 54l-65 -53h-32z" />
    <glyph glyph-name="Idieresis" unicode="&#xcf;" 
d="M82 791h82v0c-11 -31 -14 -44 -14 -69v-647c0 -33 2 -44 14 -75h-82c15 33 12 43 12 81v640c0 33 -3 35 -12 70zM25 900c5 4 16 8 30 0c10 -5 17 -15 17 -27c1 -9 -4 -20 -16 -27c-9 -6 -21 -7 -29 -2c-22 13 -27 39 -2 56zM182 900c6 4 26 4 31 1c8 -3 17 -12 17 -26
c1 -12 -2 -20 -15 -28c-9 -6 -21 -7 -29 -3c-23 12 -27 40 -4 56z" />
    <glyph glyph-name="Igrave" unicode="&#xcc;" 
d="M82 791h82v0c-11 -31 -14 -44 -14 -69v-647c0 -33 2 -44 14 -75h-82c15 33 12 43 12 81v640c0 33 -3 35 -12 70zM247 841h-42l-81 56c-22 16 -104 62 -97 93c2 13 12 28 29 32c36 10 83 -55 116 -92z" />
    <glyph glyph-name="Oacute" unicode="&#xd3;" horiz-adv-x="905" 
d="M433 802c113 15 273 -18 385 -149c94 -110 104 -263 69 -379c-38 -126 -138 -231 -270 -270c-111 -34 -263 -34 -400 77v0c-100 83 -152 213 -137 344c13 123 74 261 233 340c40 20 76 31 120 37zM296 734c-117 -71 -158 -212 -162 -297c-5 -103 36 -264 171 -362
c104 -75 233 -80 334 -42c118 44 174 133 198 235c27 121 6 275 -104 389c-104 108 -237 135 -333 117c-37 -6 -68 -19 -104 -40zM372 841h-43l71 83c15 16 84 108 120 96c12 -4 26 -16 28 -33c6 -32 -70 -74 -96 -92z" />
    <glyph glyph-name="Ocircumflex" unicode="&#xd4;" horiz-adv-x="905" 
d="M433 802c113 15 273 -18 385 -149c94 -110 104 -263 69 -379c-38 -126 -138 -231 -270 -270c-111 -34 -263 -34 -400 77v0c-100 83 -152 213 -137 344c13 123 74 261 233 340c40 20 76 31 120 37zM296 734c-117 -71 -158 -212 -162 -297c-5 -103 36 -264 171 -362
c104 -75 233 -80 334 -42c118 44 174 133 198 235c27 121 6 275 -104 389c-104 108 -237 135 -333 117c-37 -6 -68 -19 -104 -40zM476 934h33l86 -93h-32l-74 54l-65 -53h-32z" />
    <glyph glyph-name="Ograve" unicode="&#xd2;" horiz-adv-x="905" 
d="M433 802c113 15 273 -18 385 -149c94 -110 104 -263 69 -379c-38 -126 -138 -231 -270 -270c-111 -34 -263 -34 -400 77v0c-100 83 -152 213 -137 344c13 123 74 261 233 340c40 20 76 31 120 37zM296 734c-117 -71 -158 -212 -162 -297c-5 -103 36 -264 171 -362
c104 -75 233 -80 334 -42c118 44 174 133 198 235c27 121 6 275 -104 389c-104 108 -237 135 -333 117c-37 -6 -68 -19 -104 -40zM591 841h-43l-80 56c-23 16 -104 62 -98 93c2 13 13 28 30 32c36 10 83 -55 115 -92z" />
    <glyph glyph-name="Uacute" unicode="&#xda;" horiz-adv-x="613" 
d="M162 791c-8 -19 -17 -46 -17 -66v-469c0 -76 -1 -163 88 -216c59 -35 150 -35 208 -1c107 61 101 100 101 176v509c0 30 -5 42 -15 67h85v0c-11 -22 -14 -41 -15 -79v-646c0 -48 3 -50 15 -66v0h-70v93c-23 -46 -84 -76 -138 -95c-68 -23 -161 -18 -229 29
c-88 61 -84 139 -85 211v487c-1 25 -1 40 -13 66h85zM293 841h-44l71 83c15 16 84 108 120 96c13 -4 27 -16 29 -33c5 -32 -70 -74 -97 -92z" />
    <glyph glyph-name="Ucircumflex" unicode="&#xdb;" horiz-adv-x="613" 
d="M162 791c-8 -19 -17 -46 -17 -66v-469c0 -76 -1 -163 88 -216c59 -35 150 -35 208 -1c107 61 101 100 101 176v509c0 30 -5 42 -15 67h85v0c-11 -22 -14 -41 -15 -79v-646c0 -48 3 -50 15 -66v0h-70v93c-23 -46 -84 -76 -138 -95c-68 -23 -161 -18 -229 29
c-88 61 -84 139 -85 211v487c-1 25 -1 40 -13 66h85zM324 934h33l86 -93h-32l-74 54l-64 -53h-32z" />
    <glyph glyph-name="Ugrave" unicode="&#xd9;" horiz-adv-x="613" 
d="M162 791c-8 -19 -17 -46 -17 -66v-469c0 -76 -1 -163 88 -216c59 -35 150 -35 208 -1c107 61 101 100 101 176v509c0 30 -5 42 -15 67h85v0c-11 -22 -14 -41 -15 -79v-646c0 -48 3 -50 15 -66v0h-70v93c-23 -46 -84 -76 -138 -95c-68 -23 -161 -18 -229 29
c-88 61 -84 139 -85 211v487c-1 25 -1 40 -13 66h85zM478 841h-42l-81 56c-22 16 -104 62 -97 93c2 13 12 28 29 32c36 10 83 -55 116 -92z" />
    <glyph glyph-name="dotlessi" unicode="&#x131;" 
d="M126 392c18 -23 22 -48 22 -68v-34v-209c0 -49 4 -49 14 -81h-84c11 28 20 52 20 80v207c0 31 3 40 -21 76z" />
    <glyph glyph-name="circumflex" unicode="&#x2c6;" horiz-adv-x="280" 
d="M161 515h33l86 -93h-32l-74 54l-65 -53h-32z" />
    <glyph glyph-name="tilde" unicode="&#x2dc;" horiz-adv-x="287" 
d="M277 513l10 -3c-1 -32 -4 -64 -36 -79c-31 -17 -47 -4 -92 24c-21 13 -34 18 -46 11c-14 -10 -18 -29 -21 -40h-12c-2 26 -3 59 27 79c15 10 31 11 55 1c29 -12 64 -46 82 -40c19 4 25 22 33 47z" />
    <glyph glyph-name="ring" unicode="&#x2da;" horiz-adv-x="198" 
d="M119 542c15 4 35 4 53 -10c18 -13 26 -33 24 -55c-1 -17 -9 -36 -31 -49v0c-17 -9 -36 -9 -53 -1c-19 10 -32 28 -35 48c-4 26 10 55 42 67zM104 479c3 -15 13 -24 22 -28c7 -3 21 -2 28 2c10 8 17 20 16 32s-10 24 -19 29c-11 7 -21 5 -29 0c-14 -8 -19 -24 -18 -35z
" />
    </font>
</defs>
</svg>
