<?xml version="1.0" encoding="utf-8"?>
<!-- Generator: Adobe Illustrator 26.0.2, SVG Export Plug-In . SVG Version: 6.00 Build 0)  -->
<svg version="1.1" id="Layer_1" xmlns="http://www.w3.org/2000/svg" xmlns:xlink="http://www.w3.org/1999/xlink" x="0px" y="0px"
	 viewBox="0 0 800 800" style="enable-background:new 0 0 800 800;" xml:space="preserve">
<style type="text/css">
	.st0{fill:#FFFFFF;}
</style>
<rect x="147.3" y="142" class="st0" width="10.5" height="310"/>
<rect x="184.2" y="142" class="st0" width="10.5" height="310"/>
<rect x="221.1" y="142" class="st0" width="10.5" height="310"/>
<polygon class="st0" points="269,452.8 221.2,146.7 231.6,142 279.3,451.2 "/>
<path class="st0" d="M147.3,475.6h3.5v11.3h10.8v-11.3h3.5v27.2h-3.5v-12.8h-10.8v12.8h-3.5V475.6z"/>
<path class="st0" d="M183.3,475.6h17v3.1h-13.5v8.2h11.1v3.1h-11.1v9.7h13.5v3.1h-17L183.3,475.6L183.3,475.6z"/>
<path class="st0" d="M216.2,475.6h4.3l10.6,23l0.1-0.1l-0.3-7.1v-15.8h3.5v27.2H230l-10.6-23l-0.1,0.1l0.3,7.1v15.7h-3.5
	L216.2,475.6L216.2,475.6z"/>
<path class="st0" d="M251.9,475.6h9.3c4.5,0,8.2,2.1,8.2,7.4c0,3.5-2.2,6.5-5.5,7.6l6.7,11l-3,1.8l-7-12.3h-5.1v11.7h-3.5V475.6z
	 M260,488.1c3.4,0,5.6-1.9,5.6-5c0-2.5-1.5-4.3-4.6-4.3h-5.6v9.3L260,488.1L260,488.1z"/>
<path class="st0" d="M288.7,499.8h3.8v-21h-3.8v-3.1h11.2v3.1H296v21h3.9v3.1h-11.1V499.8z"/>
<path class="st0" d="M339.3,502l-2.2,2.4l-3-2.8c-1.5,1.1-3.3,1.8-5.2,1.7c-4.3,0-9.7-3.1-9.7-14.1c0-10.4,4.8-14.1,9.7-14.1
	c4.3,0,9.7,3.1,9.7,14.1c0,3.2-0.5,7.2-2.3,9.9L339.3,502z M327,495.2l2.1-2.4l4.4,4c0.9-2.4,1.4-5,1.3-7.5c0-4-0.7-10.8-6-10.8
	s-6,6.8-6,10.8s0.7,10.8,6,10.8c1,0,1.9-0.3,2.7-0.7L327,495.2z"/>
<path class="st0" d="M358.3,475.6v18.6c0,4,1.1,5.9,4.8,5.9c4.4,0,5.3-1.9,5.3-5.9v-18.6h3.5v20.2c0,3.6-2.6,7.5-8.6,7.5
	s-8.5-3.7-8.5-7.7v-20L358.3,475.6L358.3,475.6z"/>
<path class="st0" d="M390.4,475.6h17v3.1h-13.5v8.2h11.1v3.1h-11.1v9.7h13.5v3.1h-17V475.6z"/>
<path class="st0" d="M462.1,495.5l-2.6,8.1l-3.5-1.2l8.6-26.7h4.5l8.6,26.7l-3.5,1.2l-2.5-8.1H462.1L462.1,495.5z M466.9,479.7
	l-3.9,12.6h7.7L466.9,479.7z"/>
<path class="st0" d="M494.6,475.6h3.5v24.1h14.3v3.1h-17.8V475.6z"/>
<path class="st0" d="M529.9,480.8L529.9,480.8l-0.8,22.1h-3.7l1.1-27.2h4.6l4.9,11.8l4.9-11.8h4.6l1.1,27.2h-3.7l-0.7-22.1h-0.1
	l-6.1,14.4L529.9,480.8z"/>
<path class="st0" d="M563,475.6h17v3.1h-13.5v8.2h11.1v3.1h-11.1v9.7H580v3.1h-17V475.6z"/>
<path class="st0" d="M599.4,499.8h3.8v-21h-3.8v-3.1h11.2v3.1h-3.9v21h3.9v3.1h-11.2V499.8z"/>
<path class="st0" d="M630.1,475.6h9.1c7.7,0,11.2,3.2,11.2,13.3c0,8.5-1.5,14-11.2,14h-9.1v-3.1h2.8v-21h-2.8V475.6L630.1,475.6z
	 M636.4,499.7h3.7c4.6,0,6.6-2.6,6.6-10.5c0-8.4-2.4-10.5-6.8-10.5h-3.6V499.7L636.4,499.7z"/>
<path class="st0" d="M669.2,495.5l-2.6,8.1l-3.5-1.2l8.6-26.7h4.5l8.6,26.7l-3.5,1.2l-2.5-8.1H669.2L669.2,495.5z M674.1,479.7
	l-3.9,12.6h7.7L674.1,479.7z"/>
</svg>
